<svg preserveAspectRatio="none" width="100%" height="100%" overflow="visible" style="display: block;" viewBox="0 0 179.493 47.0287" fill="none" xmlns="http://www.w3.org/2000/svg">
<g id="DESIGN-AI-BLACK-LOGO 1" clip-path="url(#clip0_751_1388)">
<path id="Vector" d="M12.1937 34.7894H20.2589C22.9472 34.7894 24.2915 33.3972 24.2915 30.6128V14.2425C24.2915 11.4581 22.9472 10.066 20.2589 10.066H12.1937C11.8737 10.066 11.7137 10.2099 11.7137 10.498V34.3573C11.7137 34.6454 11.8737 34.7894 12.1937 34.7894ZM8.20921 37.1897V7.66559C8.20921 7.21753 8.43322 6.9935 8.88125 6.9935H20.6909C22.8993 6.9935 24.6275 7.63359 25.8756 8.91376C27.1558 10.162 27.7959 11.8902 27.7959 14.0985V30.7568C27.7959 32.9651 27.1558 34.7094 25.8756 35.9895C24.6275 37.2378 22.8993 37.8618 20.6909 37.8618H8.88125C8.43322 37.8618 8.20921 37.6378 8.20921 37.1897ZM51.2071 37.8618H41.0296C38.8213 37.8618 37.0771 37.2378 35.7969 35.9895C34.5487 34.7414 33.9247 32.9972 33.9247 30.7568V20.4834C33.9247 18.2431 34.5487 16.4989 35.7969 15.2506C37.0771 14.0025 38.8213 13.3784 41.0296 13.3784H45.0622C47.2705 13.3784 48.9988 14.0025 50.2469 15.2506C51.4951 16.4989 52.1192 18.2431 52.1192 20.4834V26.5803C52.1192 27.0603 51.8951 27.3003 51.4471 27.3003H37.8612C37.5412 27.3003 37.3811 27.4443 37.3811 27.7324V30.6608C37.3811 33.4452 38.7253 34.8374 41.4137 34.8374H51.2071C51.6551 34.8374 51.8791 35.0614 51.8791 35.5094V37.2377C51.8791 37.6538 51.6551 37.8618 51.2071 37.8618ZM37.8612 24.756H48.2307C48.5507 24.756 48.7107 24.596 48.7107 24.2759V20.5794C48.7107 17.827 47.3665 16.4508 44.6782 16.4508H41.4137C38.7253 16.4508 37.3811 17.827 37.3811 20.5794V24.2759C37.3811 24.596 37.5412 24.756 37.8612 24.756ZM66.3382 37.8618H57.793C57.3449 37.8618 57.1209 37.6378 57.1209 37.1897V35.5094C57.1209 35.0934 57.3449 34.8854 57.793 34.8854H65.8581C68.3545 34.8854 69.6026 33.9573 69.6026 32.101V31.1889C69.6026 29.4927 68.7865 28.3245 67.1543 27.6844L61.4895 25.2841C59.8573 24.6119 58.6891 23.8278 57.985 22.9317C57.2809 22.0036 56.9289 20.7874 56.9289 19.2832C56.9289 15.3467 59.0892 13.3784 63.4098 13.3784H71.2829C71.7309 13.3784 71.955 13.6024 71.955 14.0505V15.7307C71.955 16.1468 71.7309 16.3548 71.2829 16.3548H64.0339C62.8817 16.3548 62.0016 16.5948 61.3935 17.0749C60.8174 17.555 60.5294 18.1151 60.5294 18.7551V19.5713C60.5294 20.9154 61.4415 21.9396 63.2657 22.6437L68.9305 25.188C70.5948 25.8281 71.7149 26.6763 72.291 27.7324C72.8991 28.7886 73.2031 30.2447 73.2031 32.101C73.2031 35.9416 70.9148 37.8618 66.3382 37.8618ZM79.0418 9.34579V4.8332C79.0418 4.38513 79.2495 4.1611 79.6657 4.1611H81.8737C82.322 4.1611 82.5462 4.38513 82.5462 4.8332V9.34579C82.5462 9.7939 82.322 10.0179 81.8737 10.0179H79.6657C79.2495 10.0179 79.0418 9.7939 79.0418 9.34579ZM79.0418 37.1897V14.0505C79.0418 13.6024 79.2495 13.3784 79.6657 13.3784H81.8737C82.322 13.3784 82.5462 13.6024 82.5462 14.0505V37.1897C82.5462 37.6378 82.322 37.8618 81.8737 37.8618H79.7135C79.2659 37.8618 79.0418 37.6378 79.0418 37.1897ZM98.6622 36.5656H95.9737C93.797 36.5656 92.1009 35.9416 90.8852 34.6933C89.6687 33.4452 89.0605 31.701 89.0605 29.4606V20.4834C89.0605 18.2431 89.6852 16.4989 90.933 15.2506C92.2129 14.0025 93.9577 13.3784 96.1657 13.3784H106.583C107.031 13.3784 107.255 13.6024 107.255 14.0505V37.8618C107.255 40.0701 106.615 41.7984 105.335 43.0465C104.087 44.3267 102.359 44.9668 100.151 44.9668H91.317C90.8374 44.9668 90.5967 44.7428 90.5967 44.2947V42.5185C90.5967 42.0704 90.8374 41.8463 91.317 41.8463H99.7179C102.406 41.8463 103.751 40.4702 103.751 37.7178V34.0213H103.559C102.727 35.7175 101.094 36.5656 98.6622 36.5656ZM103.751 29.0766V16.8829C103.751 16.5948 103.591 16.4508 103.271 16.4508H96.5976C93.9091 16.4508 92.5649 17.843 92.5649 20.6274V29.3166C92.5649 32.101 93.9091 33.4932 96.5976 33.4932H99.2861C100.727 33.4932 101.83 33.1092 102.598 32.341C103.367 31.5729 103.751 30.4848 103.751 29.0766ZM116.702 37.8618H114.541C114.093 37.8618 113.869 37.6378 113.869 37.1897V14.0505C113.869 13.6024 114.093 13.3784 114.541 13.3784H116.702C117.149 13.3784 117.373 13.6024 117.373 14.0505V15.9228H117.565C118.366 14.2265 119.998 13.3784 122.462 13.3784H125.15C127.327 13.3784 129.023 14.0025 130.24 15.2506C131.455 16.4989 132.064 18.2431 132.064 20.4834V37.1897C132.064 37.6378 131.839 37.8618 131.391 37.8618H129.231C128.783 37.8618 128.559 37.6378 128.559 37.1897V20.6274C128.559 17.843 127.215 16.4508 124.526 16.4508H121.838C120.398 16.4508 119.294 16.8349 118.526 17.603C117.757 18.3711 117.373 19.4592 117.373 20.8674V37.1897C117.373 37.6378 117.149 37.8618 116.702 37.8618Z" fill="var(--fill-0, white)"/>
<path id="Vector_2" d="M179.235 46.3229H137.069V0.636719H179.235V46.3229ZM148.806 8.07682C148.07 8.07682 147.59 8.41284 147.365 9.08488L139.781 37.9367C139.589 38.6088 139.781 38.9448 140.357 38.9448H144.965C145.285 38.9448 145.509 38.8813 145.638 38.7534C145.798 38.5934 145.91 38.3208 145.973 37.9367L147.318 32.6559H156.68L158.023 37.9367C158.087 38.3208 158.183 38.5934 158.311 38.7534C158.439 38.8813 158.68 38.9448 159.032 38.9448H163.64C164.216 38.9447 164.408 38.6087 164.216 37.9367L156.631 9.08488C156.471 8.41284 155.991 8.07682 155.19 8.07682H148.806ZM169.719 8.07682C169.047 8.0769 168.711 8.41292 168.711 9.08488V37.9367C168.711 38.6087 169.047 38.9447 169.719 38.9448H173.8C174.472 38.9448 174.808 38.6088 174.808 37.9367V9.08488C174.808 8.41284 174.472 8.07682 173.8 8.07682H169.719ZM152.119 13.8857L155.574 27.7594H148.47L151.926 13.8857H152.119Z" fill="var(--fill-0, white)"/>
</g>
<defs>
<clipPath id="clip0_751_1388">
<rect width="179.493" height="47.0287" fill="white"/>
</clipPath>
</defs>
</svg>
