<svg preserveAspectRatio="none" width="100%" height="100%" overflow="visible" style="display: block;" viewBox="0 0 131.001 37.6099" fill="none" xmlns="http://www.w3.org/2000/svg">
<g id="uxtra">
<path id="Vector" d="M125.135 37.3012L121.38 25.4677H110.575L106.819 37.3012H101.52L111.45 6.63705C111.999 4.85345 112.204 3.82445 112.067 3.55005C111.93 3.24135 111.604 3.0184 111.09 2.8812C110.438 2.744 109.923 2.5725 109.546 2.3667C109.203 2.1266 109.032 1.7493 109.032 1.2348C109.032 0.411604 109.666 4.33668e-06 110.935 4.33668e-06H118.55L131.001 37.3012H125.135ZM120.145 21.6604L115.874 8.43779L111.707 21.6604H120.145Z" fill="var(--fill-0, #8097FF)"/>
<g id="Group 1261153631">
<path id="Vector_2" d="M87.318 3.6015H84.4368C83.0648 3.6015 82.3788 4.27035 82.3788 5.60804V37.3012H76.8736V5.91674C76.8736 4.81914 76.7536 4.06454 76.5135 3.65294C76.3077 3.24135 76.0504 3.00125 75.7417 2.93265C75.0557 2.76115 74.5412 2.55535 74.1982 2.31525C73.8552 2.07515 73.6837 1.73215 73.6837 1.28625C73.6837 0.428749 74.1982 0 75.2272 0H87.318C91.2282 0 94.2809 0.943248 96.4761 2.82975C98.6712 4.68194 99.7688 7.16869 99.7688 10.29C99.7688 13.6857 98.7227 16.3268 96.6304 18.2133C94.5724 20.0998 92.2057 21.0945 89.5303 21.1974L99.9746 37.3012H93.4405L83.3049 20.7858C82.7561 19.9969 82.636 19.2766 82.9447 18.6249C83.2534 17.9732 83.8022 17.6473 84.5911 17.6473H86.1346C88.5356 17.6473 90.4564 17.0299 91.897 15.7951C93.3719 14.526 94.1094 12.691 94.1094 10.29C94.1437 8.19769 93.4577 6.56844 92.0514 5.40224C90.6451 4.20174 89.0673 3.6015 87.318 3.6015Z" fill="var(--fill-0, #8097FF)"/>
<path id="Vector_3" d="M77.6691 5.98001e-05H50.6064L55.1159 3.653L61.3595 3.653V37.3013H66.8646V3.653H70.4147H85.811V5.98001e-05H77.6691Z" fill="var(--fill-0, #8097FF)"/>
</g>
<path id="Vector_4" d="M34.9858 6.73995L40.9026 18.0589L30.6126 37.3012H36.3235L43.7838 23.0496L51.244 37.3012H57.4695L46.9222 17.493L53.6825 5.72717L49.2934 2.32337L44.041 12.8625L37.6098 4.33668e-06H32.4133C31.1099 4.33668e-06 30.4582 0.428754 30.4582 1.28625C30.4582 1.80075 30.6126 2.1609 30.9213 2.3667C31.2643 2.5725 31.6587 2.744 32.1046 2.8812C32.4476 2.9841 32.8421 3.30995 33.288 3.85875C33.7339 4.40755 34.2998 5.36795 34.9858 6.73995Z" fill="var(--fill-0, #EBEFFF)"/>
<path id="Vector_5" d="M3.3957 23.5126V5.91675C3.3957 4.88775 3.30995 4.1846 3.13845 3.8073C3.00125 3.43 2.72685 3.17275 2.31525 3.03556C1.76645 2.89836 1.2348 2.70971 0.720299 2.46961C0.2401 2.22951 0 1.86936 0 1.38916C0 0.497359 0.668849 0.0514583 2.00655 0.0514583H6.99719C8.26629 0.0514583 8.90084 0.600258 8.90084 1.69786V22.638C8.90084 26.3081 9.44964 29.0521 10.5472 30.87C11.6791 32.6879 13.4113 33.5968 15.7437 33.5968C17.9732 33.5968 19.7225 32.7908 20.9916 31.1787C22.295 29.5666 22.9467 26.754 22.9467 22.7409V8.67336e-06H28.1431V22.7923C28.1431 28.2117 27.0284 32.0362 24.7989 34.2657C22.6037 36.4952 19.5853 37.6099 15.7437 37.6099C11.9021 37.6099 8.88369 36.4609 6.68849 34.1628C4.49329 31.8647 3.3957 28.3146 3.3957 23.5126Z" fill="var(--fill-0, #EBEFFF)"/>
</g>
</svg>
