<svg preserveAspectRatio="none" width="100%" height="100%" overflow="visible" style="display: block;" viewBox="0 0 303.5 2.00126" fill="none" xmlns="http://www.w3.org/2000/svg">
<path id="Vector 6 (Stroke)" d="M3.03579 2.00104L0 2.0007L0.000905683 0.00108763L3.03593 0.000823079L3.03579 2.00104ZM15.1761 1.00056L15.1753 2.00075L9.10585 2.00052L9.10538 0.00105821L15.1754 0.000529107L15.1761 1.00056ZM27.3156 2.00106L21.2454 2.00022L21.2455 0L27.3157 0.000843089L27.3156 2.00106ZM39.4558 1.00058L39.4551 2.00077L33.3856 2.00054L33.385 1.0005L33.3858 0.000313982L39.4552 0.000549117L39.4558 1.00058ZM51.5953 2.00108L45.5259 2.00085L45.5253 1.00082L45.526 0.000627964L51.5955 0.000863099L51.5953 2.00108ZM63.7356 1.0006L63.7348 2.00079L57.6654 2.00056L57.6655 0.000333992L63.735 0.000569127L63.7356 1.0006ZM75.8751 2.0011L69.8057 2.00087L69.805 1.00084L69.8058 0.000647974L75.8753 0.000883109L75.8751 2.0011ZM88.0152 2.00005L81.9452 2.00058L81.9453 0.000354002L88.0148 0.000589138L88.0152 2.00005ZM100.155 2.00036L94.0854 2.00089L94.0848 1.00086L94.0856 0.000667984L100.155 0.00090312L100.155 2.00036ZM112.296 2.00067L106.225 2.0006L106.225 0.000374013L112.295 0.0012171L112.296 2.00067ZM124.435 2.00038L118.365 2.00091L118.365 0.000687995L124.435 0.00092313L124.435 2.00038ZM136.576 2.00069L130.505 2.00062L130.505 1.00043L130.505 0.000394023L136.575 0.00123711L136.576 2.00069ZM148.715 2.0004L142.645 2.00093L142.645 0.000708005L148.715 0.000178898L148.715 2.0004ZM160.855 1.00068L160.855 2.00071L154.784 2.00064L154.785 1.00045L154.785 0.000414033L160.855 0.00049288L160.855 1.00068ZM172.995 2.00042L166.925 2.00095L166.926 1.00076L166.925 0.000728015L172.995 0.000198908L172.995 2.00042ZM185.134 1.0007L185.135 2.00073L179.065 2.00126L179.065 0.001042L185.135 0.00051289L185.134 1.0007ZM197.275 2.00044L191.205 2.00097L191.205 1.00078L191.205 0.000748025L197.275 0.000218918L197.275 2.00044ZM209.414 1.00072L209.415 2.00075L203.345 2.00052L203.345 0.00106201L209.415 0.0005329L209.414 1.00072ZM221.554 2.00046L215.485 2.00023L215.484 0.000768035L221.554 0.000238928L221.554 2.00046ZM233.695 1.00059L233.695 2.00077L227.625 2.00054L227.625 0.00108202L233.695 0.00055291L233.695 1.00059ZM245.835 2.00109L239.765 2.00025L239.764 0.000788045L245.835 0.000866892L245.835 2.00109ZM257.975 1.00061L257.974 2.00079L251.905 2.00056L251.904 0.00110203L257.975 0.00057292L257.975 1.00061ZM270.115 2.00111L264.044 2.00027L264.044 0.000808056L270.115 0.000886903L270.115 2.00111ZM282.255 1.00063L282.254 2.00081L276.185 2.00058L276.184 1.00055L276.185 0.000357796L282.254 0.000592931L282.255 1.00063ZM294.394 2.00113L288.324 2.00029L288.324 6.38236e-05L294.395 0.000906913L294.394 2.00113ZM303.5 2.00033L300.464 2.0006L300.465 0.000377806L303.499 0.000877494L303.5 2.00033Z" fill="url(#paint0_linear_546_484)"/>
<defs>
<linearGradient id="paint0_linear_546_484" x1="339.053" y1="-12.3435" x2="123.081" y2="3.00056" gradientUnits="userSpaceOnUse">
<stop stop-color="#4E9532" stop-opacity="0"/>
<stop offset="1" stop-color="#83FB54"/>
</linearGradient>
</defs>
</svg>
