<svg preserveAspectRatio="none" width="100%" height="100%" overflow="visible" style="display: block;" viewBox="0 0 1564 1572.56" fill="none" xmlns="http://www.w3.org/2000/svg">
<path id="grid" d="M1564 1572.56H0V0H1564V1572.56ZM5.12793 1490.08V1567.39H82.0459V1490.08H5.12793ZM87.1738 1490.08V1567.39H164.092V1490.08H87.1738ZM169.22 1490.08V1567.39H246.138V1490.08H169.22ZM251.266 1490.08V1567.39H328.184V1490.08H251.266ZM333.312 1490.08V1567.39H410.229V1490.08H333.312ZM415.357 1490.08V1567.39H492.275V1490.08H415.357ZM497.403 1490.08V1567.39H574.321V1490.08H497.403ZM579.449 1490.08V1567.39H656.367V1490.08H579.449ZM661.495 1490.08V1567.39H738.413V1490.08H661.495ZM743.541 1490.08V1567.39H820.459V1490.08H743.541ZM825.587 1490.08V1567.39H902.505V1490.08H825.587ZM907.633 1490.08V1567.39H984.551V1490.08H907.633ZM989.679 1490.08V1567.39H1066.6V1490.08H989.679ZM1071.72 1490.08V1567.39H1148.64V1490.08H1071.72ZM1153.77 1490.08V1567.39H1230.69V1490.08H1153.77ZM1235.82 1490.08V1567.39H1312.74V1490.08H1235.82ZM1317.86 1490.08V1567.39H1394.78V1490.08H1317.86ZM1399.91 1490.08V1567.39H1476.83V1490.08H1399.91ZM1481.96 1490.08V1567.39H1558.87V1490.08H1481.96ZM5.12793 1484.64H82.0459V1407.6H5.12793V1484.64ZM87.1738 1484.64H164.092V1407.6H87.1738V1484.64ZM169.22 1484.64H246.138V1407.6H169.22V1484.64ZM251.266 1484.64H328.184V1407.6H251.266V1484.64ZM333.312 1484.64H410.229V1407.6H333.312V1484.64ZM415.357 1484.64H492.275V1407.6H415.357V1484.64ZM497.403 1484.64H574.321V1407.6H497.403V1484.64ZM579.449 1484.64H656.367V1407.6H579.449V1484.64ZM661.495 1484.64H738.413V1407.6H661.495V1484.64ZM743.541 1484.64H820.459V1407.6H743.541V1484.64ZM825.587 1484.64H902.505V1407.6H825.587V1484.64ZM907.633 1484.64H984.551V1407.6H907.633V1484.64ZM989.679 1484.64H1066.6V1407.6H989.679V1484.64ZM1071.72 1484.64H1148.64V1407.6H1071.72V1484.64ZM1153.77 1484.64H1230.69V1407.6H1153.77V1484.64ZM1235.82 1484.64H1312.74V1407.6H1235.82V1484.64ZM1317.86 1484.64H1394.78V1407.6H1317.86V1484.64ZM1399.91 1484.64H1476.83V1407.6H1399.91V1484.64ZM1481.96 1484.64H1558.87V1407.6H1481.96V1484.64ZM5.12793 1402.16H82.0459V1325.12H5.12793V1402.16ZM87.1738 1402.16H164.092V1325.12H87.1738V1402.16ZM169.22 1402.16H246.138V1325.12H169.22V1402.16ZM251.266 1402.16H328.184V1325.12H251.266V1402.16ZM333.312 1402.16H410.229V1325.12H333.312V1402.16ZM415.357 1402.16H492.275V1325.12H415.357V1402.16ZM497.403 1402.16H574.321V1325.12H497.403V1402.16ZM579.449 1402.16H656.367V1325.12H579.449V1402.16ZM661.495 1402.16H738.413V1325.12H661.495V1402.16ZM743.541 1402.16H820.459V1325.12H743.541V1402.16ZM825.587 1402.16H902.505V1325.12H825.587V1402.16ZM907.633 1402.16H984.551V1325.12H907.633V1402.16ZM989.679 1402.16H1066.6V1325.12H989.679V1402.16ZM1071.72 1402.16H1148.64V1325.12H1071.72V1402.16ZM1153.77 1402.16H1230.69V1325.12H1153.77V1402.16ZM1235.82 1402.16H1312.74V1325.12H1235.82V1402.16ZM1317.86 1402.16H1394.78V1325.12H1317.86V1402.16ZM1399.91 1402.16H1476.83V1325.12H1399.91V1402.16ZM1481.96 1402.16H1558.87V1325.12H1481.96V1402.16ZM5.12793 1319.68H82.0459V1242.64H5.12793V1319.68ZM87.1738 1319.68H164.092V1242.64H87.1738V1319.68ZM169.22 1319.68H246.138V1242.64H169.22V1319.68ZM251.266 1319.68H328.184V1242.64H251.266V1319.68ZM333.312 1319.68H410.229V1242.64H333.312V1319.68ZM415.357 1319.68H492.275V1242.64H415.357V1319.68ZM497.403 1319.68H574.321V1242.64H497.403V1319.68ZM579.449 1319.68H656.367V1242.64H579.449V1319.68ZM661.495 1319.68H738.413V1242.64H661.495V1319.68ZM743.541 1319.68H820.459V1242.64H743.541V1319.68ZM825.587 1319.68H902.505V1242.64H825.587V1319.68ZM907.633 1319.68H984.551V1242.64H907.633V1319.68ZM989.679 1319.68H1066.6V1242.64H989.679V1319.68ZM1071.72 1319.68H1148.64V1242.64H1071.72V1319.68ZM1153.77 1319.68H1230.69V1242.64H1153.77V1319.68ZM1235.82 1319.68H1312.74V1242.64H1235.82V1319.68ZM1317.86 1319.68H1394.78V1242.64H1317.86V1319.68ZM1399.91 1319.68H1476.83V1242.64H1399.91V1319.68ZM1481.96 1319.68H1558.87V1242.64H1481.96V1319.68ZM5.12793 1237.2H82.0459V1160.16H5.12793V1237.2ZM87.1738 1237.2H164.092V1160.16H87.1738V1237.2ZM169.22 1237.2H246.138V1160.16H169.22V1237.2ZM251.266 1237.2H328.184V1160.16H251.266V1237.2ZM333.312 1237.2H410.229V1160.16H333.312V1237.2ZM415.357 1237.2H492.275V1160.16H415.357V1237.2ZM497.403 1237.2H574.321V1160.16H497.403V1237.2ZM579.449 1237.2H656.367V1160.16H579.449V1237.2ZM661.495 1237.2H738.413V1160.16H661.495V1237.2ZM743.541 1237.2H820.459V1160.16H743.541V1237.2ZM825.587 1237.2H902.505V1160.16H825.587V1237.2ZM907.633 1237.2H984.551V1160.16H907.633V1237.2ZM989.679 1237.2H1066.6V1160.16H989.679V1237.2ZM1071.72 1237.2H1148.64V1160.16H1071.72V1237.2ZM1153.77 1237.2H1230.69V1160.16H1153.77V1237.2ZM1235.82 1237.2H1312.74V1160.16H1235.82V1237.2ZM1317.86 1237.2H1394.78V1160.16H1317.86V1237.2ZM1399.91 1237.2H1476.83V1160.16H1399.91V1237.2ZM1481.96 1237.2H1558.87V1160.16H1481.96V1237.2ZM5.12793 1154.72H82.0459V1077.68H5.12793V1154.72ZM87.1738 1154.72H164.092V1077.68H87.1738V1154.72ZM169.22 1154.72H246.138V1077.68H169.22V1154.72ZM251.266 1154.72H328.184V1077.68H251.266V1154.72ZM333.312 1154.72H410.229V1077.68H333.312V1154.72ZM415.357 1154.72H492.275V1077.68H415.357V1154.72ZM497.403 1154.72H574.321V1077.68H497.403V1154.72ZM579.449 1154.72H656.367V1077.68H579.449V1154.72ZM661.495 1154.72H738.413V1077.68H661.495V1154.72ZM743.541 1154.72H820.459V1077.68H743.541V1154.72ZM825.587 1154.72H902.505V1077.68H825.587V1154.72ZM907.633 1154.72H984.551V1077.68H907.633V1154.72ZM989.679 1154.72H1066.6V1077.68H989.679V1154.72ZM1071.72 1154.72H1148.64V1077.68H1071.72V1154.72ZM1153.77 1154.72H1230.69V1077.68H1153.77V1154.72ZM1235.82 1154.72H1312.74V1077.68H1235.82V1154.72ZM1317.86 1154.72H1394.78V1077.68H1317.86V1154.72ZM1399.91 1154.72H1476.83V1077.68H1399.91V1154.72ZM1481.96 1154.72H1558.87V1077.68H1481.96V1154.72ZM5.12793 1072.24H82.0459V995.2H5.12793V1072.24ZM87.1738 1072.24H164.092V995.2H87.1738V1072.24ZM169.22 1072.24H246.138V995.2H169.22V1072.24ZM251.266 1072.24H328.184V995.2H251.266V1072.24ZM333.312 1072.24H410.229V995.2H333.312V1072.24ZM415.357 1072.24H492.275V995.2H415.357V1072.24ZM497.403 1072.24H574.321V995.2H497.403V1072.24ZM579.449 1072.24H656.367V995.2H579.449V1072.24ZM661.495 1072.24H738.413V995.2H661.495V1072.24ZM743.541 1072.24H820.459V995.2H743.541V1072.24ZM825.587 1072.24H902.505V995.2H825.587V1072.24ZM907.633 1072.24H984.551V995.2H907.633V1072.24ZM989.679 1072.24H1066.6V995.2H989.679V1072.24ZM1071.72 1072.24H1148.64V995.2H1071.72V1072.24ZM1153.77 1072.24H1230.69V995.2H1153.77V1072.24ZM1235.82 1072.24H1312.74V995.2H1235.82V1072.24ZM1317.86 1072.24H1394.78V995.2H1317.86V1072.24ZM1399.91 1072.24H1476.83V995.2H1399.91V1072.24ZM1481.96 1072.24H1558.87V995.2H1481.96V1072.24ZM5.12793 989.759H82.0459V912.721H5.12793V989.759ZM87.1738 989.759H164.092V912.721H87.1738V989.759ZM169.22 989.759H246.138V912.721H169.22V989.759ZM251.266 989.759H328.184V912.721H251.266V989.759ZM333.312 989.759H410.229V912.721H333.312V989.759ZM415.357 989.759H492.275V912.721H415.357V989.759ZM497.403 989.759H574.321V912.721H497.403V989.759ZM579.449 989.759H656.367V912.721H579.449V989.759ZM661.495 989.759H738.413V912.721H661.495V989.759ZM743.541 989.759H820.459V912.721H743.541V989.759ZM825.587 989.759H902.505V912.721H825.587V989.759ZM907.633 989.759H984.551V912.721H907.633V989.759ZM989.679 989.759H1066.6V912.721H989.679V989.759ZM1071.72 989.759H1148.64V912.721H1071.72V989.759ZM1153.77 989.759H1230.69V912.721H1153.77V989.759ZM1235.82 989.759H1312.74V912.721H1235.82V989.759ZM1317.86 989.759H1394.78V912.721H1317.86V989.759ZM1399.91 989.759H1476.83V912.721H1399.91V989.759ZM1481.96 989.759H1558.87V912.721H1481.96V989.759ZM5.12793 907.278H82.0459V830.241H5.12793V907.278ZM87.1738 907.278H164.092V830.241H87.1738V907.278ZM169.22 907.278H246.138V830.241H169.22V907.278ZM251.266 907.278H328.184V830.241H251.266V907.278ZM333.312 907.278H410.229V830.241H333.312V907.278ZM415.357 907.278H492.275V830.241H415.357V907.278ZM497.403 907.278H574.321V830.241H497.403V907.278ZM579.449 907.278H656.367V830.241H579.449V907.278ZM661.495 907.278H738.413V830.241H661.495V907.278ZM743.541 907.278H820.459V830.241H743.541V907.278ZM825.587 907.278H902.505V830.241H825.587V907.278ZM907.633 907.278H984.551V830.241H907.633V907.278ZM989.679 907.278H1066.6V830.241H989.679V907.278ZM1071.72 907.278H1148.64V830.241H1071.72V907.278ZM1153.77 907.278H1230.69V830.241H1153.77V907.278ZM1235.82 907.278H1312.74V830.241H1235.82V907.278ZM1317.86 907.278H1394.78V830.241H1317.86V907.278ZM1399.91 907.278H1476.83V830.241H1399.91V907.278ZM1481.96 907.278H1558.87V830.241H1481.96V907.278ZM5.12793 824.799H82.0459V747.761H5.12793V824.799ZM87.1738 824.799H164.092V747.761H87.1738V824.799ZM169.22 824.799H246.138V747.761H169.22V824.799ZM251.266 824.799H328.184V747.761H251.266V824.799ZM333.312 824.799H410.229V747.761H333.312V824.799ZM415.357 824.799H492.275V747.761H415.357V824.799ZM497.403 824.799H574.321V747.761H497.403V824.799ZM579.449 824.799H656.367V747.761H579.449V824.799ZM661.495 824.799H738.413V747.761H661.495V824.799ZM743.541 824.799H820.459V747.761H743.541V824.799ZM825.587 824.799H902.505V747.761H825.587V824.799ZM907.633 824.799H984.551V747.761H907.633V824.799ZM989.679 824.799H1066.6V747.761H989.679V824.799ZM1071.72 824.799H1148.64V747.761H1071.72V824.799ZM1153.77 824.799H1230.69V747.761H1153.77V824.799ZM1235.82 824.799H1312.74V747.761H1235.82V824.799ZM1317.86 824.799H1394.78V747.761H1317.86V824.799ZM1399.91 824.799H1476.83V747.761H1399.91V824.799ZM1481.96 824.799H1558.87V747.761H1481.96V824.799ZM5.12793 742.318H82.0459V665.281H5.12793V742.318ZM87.1738 742.318H164.092V665.281H87.1738V742.318ZM169.22 742.318H246.138V665.281H169.22V742.318ZM251.266 742.318H328.184V665.281H251.266V742.318ZM333.312 742.318H410.229V665.281H333.312V742.318ZM415.357 742.318H492.275V665.281H415.357V742.318ZM497.403 742.318H574.321V665.281H497.403V742.318ZM579.449 742.318H656.367V665.281H579.449V742.318ZM661.495 742.318H738.413V665.281H661.495V742.318ZM743.541 742.318H820.459V665.281H743.541V742.318ZM825.587 742.318H902.505V665.281H825.587V742.318ZM907.633 742.318H984.551V665.281H907.633V742.318ZM989.679 742.318H1066.6V665.281H989.679V742.318ZM1071.72 742.318H1148.64V665.281H1071.72V742.318ZM1153.77 742.318H1230.69V665.281H1153.77V742.318ZM1235.82 742.318H1312.74V665.281H1235.82V742.318ZM1317.86 742.318H1394.78V665.281H1317.86V742.318ZM1399.91 742.318H1476.83V665.281H1399.91V742.318ZM1481.96 742.318H1558.87V665.281H1481.96V742.318ZM5.12793 659.839H82.0459V582.801H5.12793V659.839ZM87.1738 659.839H164.092V582.801H87.1738V659.839ZM169.22 659.839H246.138V582.801H169.22V659.839ZM251.266 659.839H328.184V582.801H251.266V659.839ZM333.312 659.839H410.229V582.801H333.312V659.839ZM415.357 659.839H492.275V582.801H415.357V659.839ZM497.403 659.839H574.321V582.801H497.403V659.839ZM579.449 659.839H656.367V582.801H579.449V659.839ZM661.495 659.839H738.413V582.801H661.495V659.839ZM743.541 659.839H820.459V582.801H743.541V659.839ZM825.587 659.839H902.505V582.801H825.587V659.839ZM907.633 659.839H984.551V582.801H907.633V659.839ZM989.679 659.839H1066.6V582.801H989.679V659.839ZM1071.72 659.839H1148.64V582.801H1071.72V659.839ZM1153.77 659.839H1230.69V582.801H1153.77V659.839ZM1235.82 659.839H1312.74V582.801H1235.82V659.839ZM1317.86 659.839H1394.78V582.801H1317.86V659.839ZM1399.91 659.839H1476.83V582.801H1399.91V659.839ZM1481.96 659.839H1558.87V582.801H1481.96V659.839ZM5.12793 577.358H82.0459V500.321H5.12793V577.358ZM87.1738 577.358H164.092V500.321H87.1738V577.358ZM169.22 577.358H246.138V500.321H169.22V577.358ZM251.266 577.358H328.184V500.321H251.266V577.358ZM333.312 577.358H410.229V500.321H333.312V577.358ZM415.357 577.358H492.275V500.321H415.357V577.358ZM497.403 577.358H574.321V500.321H497.403V577.358ZM579.449 577.358H656.367V500.321H579.449V577.358ZM661.495 577.358H738.413V500.321H661.495V577.358ZM743.541 577.358H820.459V500.321H743.541V577.358ZM825.587 577.358H902.505V500.321H825.587V577.358ZM907.633 577.358H984.551V500.321H907.633V577.358ZM989.679 577.358H1066.6V500.321H989.679V577.358ZM1071.72 577.358H1148.64V500.321H1071.72V577.358ZM1153.77 577.358H1230.69V500.321H1153.77V577.358ZM1235.82 577.358H1312.74V500.321H1235.82V577.358ZM1317.86 577.358H1394.78V500.321H1317.86V577.358ZM1399.91 577.358H1476.83V500.321H1399.91V577.358ZM1481.96 577.358H1558.87V500.321H1481.96V577.358ZM5.12793 494.879H82.0459V417.842H5.12793V494.879ZM87.1738 494.879H164.092V417.842H87.1738V494.879ZM169.22 494.879H246.138V417.842H169.22V494.879ZM251.266 494.879H328.184V417.842H251.266V494.879ZM333.312 494.879H410.229V417.842H333.312V494.879ZM415.357 494.879H492.275V417.842H415.357V494.879ZM497.403 494.879H574.321V417.842H497.403V494.879ZM579.449 494.879H656.367V417.842H579.449V494.879ZM661.495 494.879H738.413V417.842H661.495V494.879ZM743.541 494.879H820.459V417.842H743.541V494.879ZM825.587 494.879H902.505V417.842H825.587V494.879ZM907.633 494.879H984.551V417.842H907.633V494.879ZM989.679 494.879H1066.6V417.842H989.679V494.879ZM1071.72 494.879H1148.64V417.842H1071.72V494.879ZM1153.77 494.879H1230.69V417.842H1153.77V494.879ZM1235.82 494.879H1312.74V417.842H1235.82V494.879ZM1317.86 494.879H1394.78V417.842H1317.86V494.879ZM1399.91 494.879H1476.83V417.842H1399.91V494.879ZM1481.96 494.879H1558.87V417.842H1481.96V494.879ZM5.12793 412.399H82.0459V335.361H5.12793V412.399ZM87.1738 412.399H164.092V335.361H87.1738V412.399ZM169.22 412.399H246.138V335.361H169.22V412.399ZM251.266 412.399H328.184V335.361H251.266V412.399ZM333.312 412.399H410.229V335.361H333.312V412.399ZM415.357 412.399H492.275V335.361H415.357V412.399ZM497.403 412.399H574.321V335.361H497.403V412.399ZM579.449 412.399H656.367V335.361H579.449V412.399ZM661.495 412.399H738.413V335.361H661.495V412.399ZM743.541 412.399H820.459V335.361H743.541V412.399ZM825.587 412.399H902.505V335.361H825.587V412.399ZM907.633 412.399H984.551V335.361H907.633V412.399ZM989.679 412.399H1066.6V335.361H989.679V412.399ZM1071.72 412.399H1148.64V335.361H1071.72V412.399ZM1153.77 412.399H1230.69V335.361H1153.77V412.399ZM1235.82 412.399H1312.74V335.361H1235.82V412.399ZM1317.86 412.399H1394.78V335.361H1317.86V412.399ZM1399.91 412.399H1476.83V335.361H1399.91V412.399ZM1481.96 412.399H1558.87V335.361H1481.96V412.399ZM5.12793 329.919H82.0459V252.882H5.12793V329.919ZM87.1738 329.919H164.092V252.882H87.1738V329.919ZM169.22 329.919H246.138V252.882H169.22V329.919ZM251.266 329.919H328.184V252.882H251.266V329.919ZM333.312 329.919H410.229V252.882H333.312V329.919ZM415.357 329.919H492.275V252.882H415.357V329.919ZM497.403 329.919H574.321V252.882H497.403V329.919ZM579.449 329.919H656.367V252.882H579.449V329.919ZM661.495 329.919H738.413V252.882H661.495V329.919ZM743.541 329.919H820.459V252.882H743.541V329.919ZM825.587 329.919H902.505V252.882H825.587V329.919ZM907.633 329.919H984.551V252.882H907.633V329.919ZM989.679 329.919H1066.6V252.882H989.679V329.919ZM1071.72 329.919H1148.64V252.882H1071.72V329.919ZM1153.77 329.919H1230.69V252.882H1153.77V329.919ZM1235.82 329.919H1312.74V252.882H1235.82V329.919ZM1317.86 329.919H1394.78V252.882H1317.86V329.919ZM1399.91 329.919H1476.83V252.882H1399.91V329.919ZM1481.96 329.919H1558.87V252.882H1481.96V329.919ZM5.12793 247.439H82.0459V170.401H5.12793V247.439ZM87.1738 247.439H164.092V170.401H87.1738V247.439ZM169.22 247.439H246.138V170.401H169.22V247.439ZM251.266 247.439H328.184V170.401H251.266V247.439ZM333.312 247.439H410.229V170.401H333.312V247.439ZM415.357 247.439H492.275V170.401H415.357V247.439ZM497.403 247.439H574.321V170.401H497.403V247.439ZM579.449 247.439H656.367V170.401H579.449V247.439ZM661.495 247.439H738.413V170.401H661.495V247.439ZM743.541 247.439H820.459V170.401H743.541V247.439ZM825.587 247.439H902.505V170.401H825.587V247.439ZM907.633 247.439H984.551V170.401H907.633V247.439ZM989.679 247.439H1066.6V170.401H989.679V247.439ZM1071.72 247.439H1148.64V170.401H1071.72V247.439ZM1153.77 247.439H1230.69V170.401H1153.77V247.439ZM1235.82 247.439H1312.74V170.401H1235.82V247.439ZM1317.86 247.439H1394.78V170.401H1317.86V247.439ZM1399.91 247.439H1476.83V170.401H1399.91V247.439ZM1481.96 247.439H1558.87V170.401H1481.96V247.439ZM5.12793 164.959H82.0459V87.9219H5.12793V164.959ZM87.1738 164.959H164.092V87.9219H87.1738V164.959ZM169.22 164.959H246.138V87.9219H169.22V164.959ZM251.266 164.959H328.184V87.9219H251.266V164.959ZM333.312 164.959H410.229V87.9219H333.312V164.959ZM415.357 164.959H492.275V87.9219H415.357V164.959ZM497.403 164.959H574.321V87.9219H497.403V164.959ZM579.449 164.959H656.367V87.9219H579.449V164.959ZM661.495 164.959H738.413V87.9219H661.495V164.959ZM743.541 164.959H820.459V87.9219H743.541V164.959ZM825.587 164.959H902.505V87.9219H825.587V164.959ZM907.633 164.959H984.551V87.9219H907.633V164.959ZM989.679 164.959H1066.6V87.9219H989.679V164.959ZM1071.72 164.959H1148.64V87.9219H1071.72V164.959ZM1153.77 164.959H1230.69V87.9219H1153.77V164.959ZM1235.82 164.959H1312.74V87.9219H1235.82V164.959ZM1317.86 164.959H1394.78V87.9219H1317.86V164.959ZM1399.91 164.959H1476.83V87.9219H1399.91V164.959ZM1481.96 164.959H1558.87V87.9219H1481.96V164.959ZM5.12793 82.4795H82.0459V5.17188H5.12793V82.4795ZM87.1738 82.4795H164.092V5.17188H87.1738V82.4795ZM169.22 82.4795H246.138V5.17188H169.22V82.4795ZM251.266 82.4795H328.184V5.17188H251.266V82.4795ZM333.312 82.4795H410.229V5.17188H333.312V82.4795ZM415.357 82.4795H492.275V5.17188H415.357V82.4795ZM497.403 82.4795H574.321V5.17188H497.403V82.4795ZM579.449 82.4795H656.367V5.17188H579.449V82.4795ZM661.495 82.4795H738.413V5.17188H661.495V82.4795ZM743.541 82.4795H820.459V5.17188H743.541V82.4795ZM825.587 82.4795H902.505V5.17188H825.587V82.4795ZM907.633 82.4795H984.551V5.17188H907.633V82.4795ZM989.679 82.4795H1066.6V5.17188H989.679V82.4795ZM1071.72 82.4795H1148.64V5.17188H1071.72V82.4795ZM1153.77 82.4795H1230.69V5.17188H1153.77V82.4795ZM1235.82 82.4795H1312.74V5.17188H1235.82V82.4795ZM1317.86 82.4795H1394.78V5.17188H1317.86V82.4795ZM1399.91 82.4795H1476.83V5.17188H1399.91V82.4795ZM1481.96 82.4795H1558.87V5.17188H1481.96V82.4795Z" fill="url(#paint0_radial_542_1473)" fill-opacity="0.1"/>
<defs>
<radialGradient id="paint0_radial_542_1473" cx="0" cy="0" r="1" gradientUnits="userSpaceOnUse" gradientTransform="translate(784.908 784.906) rotate(90.2115) scale(787.659 852.113)">
<stop stop-color="white"/>
<stop offset="1" stop-color="white" stop-opacity="0"/>
</radialGradient>
</defs>
</svg>
