<svg preserveAspectRatio="none" width="100%" height="100%" overflow="visible" style="display: block;" viewBox="0 0 677.294 681" fill="none" xmlns="http://www.w3.org/2000/svg">
<path id="grid" d="M677.294 681H0V0H677.294V681ZM2.2207 645.282V678.761H35.5303V645.282H2.2207ZM37.751 645.282V678.761H71.0605V645.282H37.751ZM73.2812 645.282V678.761H106.591V645.282H73.2812ZM108.812 645.282V678.761H142.121V645.282H108.812ZM144.342 645.282V678.761H177.651V645.282H144.342ZM179.871 645.282V678.761H213.181V645.282H179.871ZM215.401 645.282V678.761H248.711V645.282H215.401ZM250.932 645.282V678.761H284.241V645.282H250.932ZM286.462 645.282V678.761H319.771V645.282H286.462ZM321.992 645.282V678.761H355.302V645.282H321.992ZM357.522 645.282V678.761H390.832V645.282H357.522ZM393.053 645.282V678.761H426.362V645.282H393.053ZM428.583 645.282V678.761H461.893V645.282H428.583ZM464.112 645.282V678.761H497.422V645.282H464.112ZM499.643 645.282V678.761H532.952V645.282H499.643ZM535.173 645.282V678.761H568.482V645.282H535.173ZM570.703 645.282V678.761H604.013V645.282H570.703ZM606.233 645.282V678.761H639.543V645.282H606.233ZM641.764 645.282V678.761H675.073V645.282H641.764ZM2.2207 642.925H35.5303V609.564H2.2207V642.925ZM37.751 642.925H71.0605V609.564H37.751V642.925ZM73.2812 642.925H106.591V609.564H73.2812V642.925ZM108.812 642.925H142.121V609.564H108.812V642.925ZM144.342 642.925H177.651V609.564H144.342V642.925ZM179.871 642.925H213.181V609.564H179.871V642.925ZM215.401 642.925H248.711V609.564H215.401V642.925ZM250.932 642.925H284.241V609.564H250.932V642.925ZM286.462 642.925H319.771V609.564H286.462V642.925ZM321.992 642.925H355.302V609.564H321.992V642.925ZM357.522 642.925H390.832V609.564H357.522V642.925ZM393.053 642.925H426.362V609.564H393.053V642.925ZM428.583 642.925H461.893V609.564H428.583V642.925ZM464.112 642.925H497.422V609.564H464.112V642.925ZM499.643 642.925H532.952V609.564H499.643V642.925ZM535.173 642.925H568.482V609.564H535.173V642.925ZM570.703 642.925H604.013V609.564H570.703V642.925ZM606.233 642.925H639.543V609.564H606.233V642.925ZM641.764 642.925H675.073V609.564H641.764V642.925ZM2.2207 607.207H35.5303V573.846H2.2207V607.207ZM37.751 607.207H71.0605V573.846H37.751V607.207ZM73.2812 607.207H106.591V573.846H73.2812V607.207ZM108.812 607.207H142.121V573.846H108.812V607.207ZM144.342 607.207H177.651V573.846H144.342V607.207ZM179.871 607.207H213.181V573.846H179.871V607.207ZM215.401 607.207H248.711V573.846H215.401V607.207ZM250.932 607.207H284.241V573.846H250.932V607.207ZM286.462 607.207H319.771V573.846H286.462V607.207ZM321.992 607.207H355.302V573.846H321.992V607.207ZM357.522 607.207H390.832V573.846H357.522V607.207ZM393.053 607.207H426.362V573.846H393.053V607.207ZM428.583 607.207H461.893V573.846H428.583V607.207ZM464.112 607.207H497.422V573.846H464.112V607.207ZM499.643 607.207H532.952V573.846H499.643V607.207ZM535.173 607.207H568.482V573.846H535.173V607.207ZM570.703 607.207H604.013V573.846H570.703V607.207ZM606.233 607.207H639.543V573.846H606.233V607.207ZM641.764 607.207H675.073V573.846H641.764V607.207ZM2.2207 571.489H35.5303V538.128H2.2207V571.489ZM37.751 571.489H71.0605V538.128H37.751V571.489ZM73.2812 571.489H106.591V538.128H73.2812V571.489ZM108.812 571.489H142.121V538.128H108.812V571.489ZM144.342 571.489H177.651V538.128H144.342V571.489ZM179.871 571.489H213.181V538.128H179.871V571.489ZM215.401 571.489H248.711V538.128H215.401V571.489ZM250.932 571.489H284.241V538.128H250.932V571.489ZM286.462 571.489H319.771V538.128H286.462V571.489ZM321.992 571.489H355.302V538.128H321.992V571.489ZM357.522 571.489H390.832V538.128H357.522V571.489ZM393.053 571.489H426.362V538.128H393.053V571.489ZM428.583 571.489H461.893V538.128H428.583V571.489ZM464.112 571.489H497.422V538.128H464.112V571.489ZM499.643 571.489H532.952V538.128H499.643V571.489ZM535.173 571.489H568.482V538.128H535.173V571.489ZM570.703 571.489H604.013V538.128H570.703V571.489ZM606.233 571.489H639.543V538.128H606.233V571.489ZM641.764 571.489H675.073V538.128H641.764V571.489ZM2.2207 535.771H35.5303V502.41H2.2207V535.771ZM37.751 535.771H71.0605V502.41H37.751V535.771ZM73.2812 535.771H106.591V502.41H73.2812V535.771ZM108.812 535.771H142.121V502.41H108.812V535.771ZM144.342 535.771H177.651V502.41H144.342V535.771ZM179.871 535.771H213.181V502.41H179.871V535.771ZM215.401 535.771H248.711V502.41H215.401V535.771ZM250.932 535.771H284.241V502.41H250.932V535.771ZM286.462 535.771H319.771V502.41H286.462V535.771ZM321.992 535.771H355.302V502.41H321.992V535.771ZM357.522 535.771H390.832V502.41H357.522V535.771ZM393.053 535.771H426.362V502.41H393.053V535.771ZM428.583 535.771H461.893V502.41H428.583V535.771ZM464.112 535.771H497.422V502.41H464.112V535.771ZM499.643 535.771H532.952V502.41H499.643V535.771ZM535.173 535.771H568.482V502.41H535.173V535.771ZM570.703 535.771H604.013V502.41H570.703V535.771ZM606.233 535.771H639.543V502.41H606.233V535.771ZM641.764 535.771H675.073V502.41H641.764V535.771ZM2.2207 500.053H35.5303V466.691H2.2207V500.053ZM37.751 500.053H71.0605V466.691H37.751V500.053ZM73.2812 500.053H106.591V466.691H73.2812V500.053ZM108.812 500.053H142.121V466.691H108.812V500.053ZM144.342 500.053H177.651V466.691H144.342V500.053ZM179.871 500.053H213.181V466.691H179.871V500.053ZM215.401 500.053H248.711V466.691H215.401V500.053ZM250.932 500.053H284.241V466.691H250.932V500.053ZM286.462 500.053H319.771V466.691H286.462V500.053ZM321.992 500.053H355.302V466.691H321.992V500.053ZM357.522 500.053H390.832V466.691H357.522V500.053ZM393.053 500.053H426.362V466.691H393.053V500.053ZM428.583 500.053H461.893V466.691H428.583V500.053ZM464.112 500.053H497.422V466.691H464.112V500.053ZM499.643 500.053H532.952V466.691H499.643V500.053ZM535.173 500.053H568.482V466.691H535.173V500.053ZM570.703 500.053H604.013V466.691H570.703V500.053ZM606.233 500.053H639.543V466.691H606.233V500.053ZM641.764 500.053H675.073V466.691H641.764V500.053ZM2.2207 464.335H35.5303V430.974H2.2207V464.335ZM37.751 464.335H71.0605V430.974H37.751V464.335ZM73.2812 464.335H106.591V430.974H73.2812V464.335ZM108.812 464.335H142.121V430.974H108.812V464.335ZM144.342 464.335H177.651V430.974H144.342V464.335ZM179.871 464.335H213.181V430.974H179.871V464.335ZM215.401 464.335H248.711V430.974H215.401V464.335ZM250.932 464.335H284.241V430.974H250.932V464.335ZM286.462 464.335H319.771V430.974H286.462V464.335ZM321.992 464.335H355.302V430.974H321.992V464.335ZM357.522 464.335H390.832V430.974H357.522V464.335ZM393.053 464.335H426.362V430.974H393.053V464.335ZM428.583 464.335H461.893V430.974H428.583V464.335ZM464.112 464.335H497.422V430.974H464.112V464.335ZM499.643 464.335H532.952V430.974H499.643V464.335ZM535.173 464.335H568.482V430.974H535.173V464.335ZM570.703 464.335H604.013V430.974H570.703V464.335ZM606.233 464.335H639.543V430.974H606.233V464.335ZM641.764 464.335H675.073V430.974H641.764V464.335ZM2.2207 428.617H35.5303V395.256H2.2207V428.617ZM37.751 428.617H71.0605V395.256H37.751V428.617ZM73.2812 428.617H106.591V395.256H73.2812V428.617ZM108.812 428.617H142.121V395.256H108.812V428.617ZM144.342 428.617H177.651V395.256H144.342V428.617ZM179.871 428.617H213.181V395.256H179.871V428.617ZM215.401 428.617H248.711V395.256H215.401V428.617ZM250.932 428.617H284.241V395.256H250.932V428.617ZM286.462 428.617H319.771V395.256H286.462V428.617ZM321.992 428.617H355.302V395.256H321.992V428.617ZM357.522 428.617H390.832V395.256H357.522V428.617ZM393.053 428.617H426.362V395.256H393.053V428.617ZM428.583 428.617H461.893V395.256H428.583V428.617ZM464.112 428.617H497.422V395.256H464.112V428.617ZM499.643 428.617H532.952V395.256H499.643V428.617ZM535.173 428.617H568.482V395.256H535.173V428.617ZM570.703 428.617H604.013V395.256H570.703V428.617ZM606.233 428.617H639.543V395.256H606.233V428.617ZM641.764 428.617H675.073V395.256H641.764V428.617ZM2.2207 392.898H35.5303V359.537H2.2207V392.898ZM37.751 392.898H71.0605V359.537H37.751V392.898ZM73.2812 392.898H106.591V359.537H73.2812V392.898ZM108.812 392.898H142.121V359.537H108.812V392.898ZM144.342 392.898H177.651V359.537H144.342V392.898ZM179.871 392.898H213.181V359.537H179.871V392.898ZM215.401 392.898H248.711V359.537H215.401V392.898ZM250.932 392.898H284.241V359.537H250.932V392.898ZM286.462 392.898H319.771V359.537H286.462V392.898ZM321.992 392.898H355.302V359.537H321.992V392.898ZM357.522 392.898H390.832V359.537H357.522V392.898ZM393.053 392.898H426.362V359.537H393.053V392.898ZM428.583 392.898H461.893V359.537H428.583V392.898ZM464.112 392.898H497.422V359.537H464.112V392.898ZM499.643 392.898H532.952V359.537H499.643V392.898ZM535.173 392.898H568.482V359.537H535.173V392.898ZM570.703 392.898H604.013V359.537H570.703V392.898ZM606.233 392.898H639.543V359.537H606.233V392.898ZM641.764 392.898H675.073V359.537H641.764V392.898ZM2.2207 357.181H35.5303V323.819H2.2207V357.181ZM37.751 357.181H71.0605V323.819H37.751V357.181ZM73.2812 357.181H106.591V323.819H73.2812V357.181ZM108.812 357.181H142.121V323.819H108.812V357.181ZM144.342 357.181H177.651V323.819H144.342V357.181ZM179.871 357.181H213.181V323.819H179.871V357.181ZM215.401 357.181H248.711V323.819H215.401V357.181ZM250.932 357.181H284.241V323.819H250.932V357.181ZM286.462 357.181H319.771V323.819H286.462V357.181ZM321.992 357.181H355.302V323.819H321.992V357.181ZM357.522 357.181H390.832V323.819H357.522V357.181ZM393.053 357.181H426.362V323.819H393.053V357.181ZM428.583 357.181H461.893V323.819H428.583V357.181ZM464.112 357.181H497.422V323.819H464.112V357.181ZM499.643 357.181H532.952V323.819H499.643V357.181ZM535.173 357.181H568.482V323.819H535.173V357.181ZM570.703 357.181H604.013V323.819H570.703V357.181ZM606.233 357.181H639.543V323.819H606.233V357.181ZM641.764 357.181H675.073V323.819H641.764V357.181ZM2.2207 321.463H35.5303V288.102H2.2207V321.463ZM37.751 321.463H71.0605V288.102H37.751V321.463ZM73.2812 321.463H106.591V288.102H73.2812V321.463ZM108.812 321.463H142.121V288.102H108.812V321.463ZM144.342 321.463H177.651V288.102H144.342V321.463ZM179.871 321.463H213.181V288.102H179.871V321.463ZM215.401 321.463H248.711V288.102H215.401V321.463ZM250.932 321.463H284.241V288.102H250.932V321.463ZM286.462 321.463H319.771V288.102H286.462V321.463ZM321.992 321.463H355.302V288.102H321.992V321.463ZM357.522 321.463H390.832V288.102H357.522V321.463ZM393.053 321.463H426.362V288.102H393.053V321.463ZM428.583 321.463H461.893V288.102H428.583V321.463ZM464.112 321.463H497.422V288.102H464.112V321.463ZM499.643 321.463H532.952V288.102H499.643V321.463ZM535.173 321.463H568.482V288.102H535.173V321.463ZM570.703 321.463H604.013V288.102H570.703V321.463ZM606.233 321.463H639.543V288.102H606.233V321.463ZM641.764 321.463H675.073V288.102H641.764V321.463ZM2.2207 285.744H35.5303V252.383H2.2207V285.744ZM37.751 285.744H71.0605V252.383H37.751V285.744ZM73.2812 285.744H106.591V252.383H73.2812V285.744ZM108.812 285.744H142.121V252.383H108.812V285.744ZM144.342 285.744H177.651V252.383H144.342V285.744ZM179.871 285.744H213.181V252.383H179.871V285.744ZM215.401 285.744H248.711V252.383H215.401V285.744ZM250.932 285.744H284.241V252.383H250.932V285.744ZM286.462 285.744H319.771V252.383H286.462V285.744ZM321.992 285.744H355.302V252.383H321.992V285.744ZM357.522 285.744H390.832V252.383H357.522V285.744ZM393.053 285.744H426.362V252.383H393.053V285.744ZM428.583 285.744H461.893V252.383H428.583V285.744ZM464.112 285.744H497.422V252.383H464.112V285.744ZM499.643 285.744H532.952V252.383H499.643V285.744ZM535.173 285.744H568.482V252.383H535.173V285.744ZM570.703 285.744H604.013V252.383H570.703V285.744ZM606.233 285.744H639.543V252.383H606.233V285.744ZM641.764 285.744H675.073V252.383H641.764V285.744ZM2.2207 250.026H35.5303V216.665H2.2207V250.026ZM37.751 250.026H71.0605V216.665H37.751V250.026ZM73.2812 250.026H106.591V216.665H73.2812V250.026ZM108.812 250.026H142.121V216.665H108.812V250.026ZM144.342 250.026H177.651V216.665H144.342V250.026ZM179.871 250.026H213.181V216.665H179.871V250.026ZM215.401 250.026H248.711V216.665H215.401V250.026ZM250.932 250.026H284.241V216.665H250.932V250.026ZM286.462 250.026H319.771V216.665H286.462V250.026ZM321.992 250.026H355.302V216.665H321.992V250.026ZM357.522 250.026H390.832V216.665H357.522V250.026ZM393.053 250.026H426.362V216.665H393.053V250.026ZM428.583 250.026H461.893V216.665H428.583V250.026ZM464.112 250.026H497.422V216.665H464.112V250.026ZM499.643 250.026H532.952V216.665H499.643V250.026ZM535.173 250.026H568.482V216.665H535.173V250.026ZM570.703 250.026H604.013V216.665H570.703V250.026ZM606.233 250.026H639.543V216.665H606.233V250.026ZM641.764 250.026H675.073V216.665H641.764V250.026ZM2.2207 214.309H35.5303V180.947H2.2207V214.309ZM37.751 214.309H71.0605V180.947H37.751V214.309ZM73.2812 214.309H106.591V180.947H73.2812V214.309ZM108.812 214.309H142.121V180.947H108.812V214.309ZM144.342 214.309H177.651V180.947H144.342V214.309ZM179.871 214.309H213.181V180.947H179.871V214.309ZM215.401 214.309H248.711V180.947H215.401V214.309ZM250.932 214.309H284.241V180.947H250.932V214.309ZM286.462 214.309H319.771V180.947H286.462V214.309ZM321.992 214.309H355.302V180.947H321.992V214.309ZM357.522 214.309H390.832V180.947H357.522V214.309ZM393.053 214.309H426.362V180.947H393.053V214.309ZM428.583 214.309H461.893V180.947H428.583V214.309ZM464.112 214.309H497.422V180.947H464.112V214.309ZM499.643 214.309H532.952V180.947H499.643V214.309ZM535.173 214.309H568.482V180.947H535.173V214.309ZM570.703 214.309H604.013V180.947H570.703V214.309ZM606.233 214.309H639.543V180.947H606.233V214.309ZM641.764 214.309H675.073V180.947H641.764V214.309ZM2.2207 178.59H35.5303V145.229H2.2207V178.59ZM37.751 178.59H71.0605V145.229H37.751V178.59ZM73.2812 178.59H106.591V145.229H73.2812V178.59ZM108.812 178.59H142.121V145.229H108.812V178.59ZM144.342 178.59H177.651V145.229H144.342V178.59ZM179.871 178.59H213.181V145.229H179.871V178.59ZM215.401 178.59H248.711V145.229H215.401V178.59ZM250.932 178.59H284.241V145.229H250.932V178.59ZM286.462 178.59H319.771V145.229H286.462V178.59ZM321.992 178.59H355.302V145.229H321.992V178.59ZM357.522 178.59H390.832V145.229H357.522V178.59ZM393.053 178.59H426.362V145.229H393.053V178.59ZM428.583 178.59H461.893V145.229H428.583V178.59ZM464.112 178.59H497.422V145.229H464.112V178.59ZM499.643 178.59H532.952V145.229H499.643V178.59ZM535.173 178.59H568.482V145.229H535.173V178.59ZM570.703 178.59H604.013V145.229H570.703V178.59ZM606.233 178.59H639.543V145.229H606.233V178.59ZM641.764 178.59H675.073V145.229H641.764V178.59ZM2.2207 142.872H35.5303V109.511H2.2207V142.872ZM37.751 142.872H71.0605V109.511H37.751V142.872ZM73.2812 142.872H106.591V109.511H73.2812V142.872ZM108.812 142.872H142.121V109.511H108.812V142.872ZM144.342 142.872H177.651V109.511H144.342V142.872ZM179.871 142.872H213.181V109.511H179.871V142.872ZM215.401 142.872H248.711V109.511H215.401V142.872ZM250.932 142.872H284.241V109.511H250.932V142.872ZM286.462 142.872H319.771V109.511H286.462V142.872ZM321.992 142.872H355.302V109.511H321.992V142.872ZM357.522 142.872H390.832V109.511H357.522V142.872ZM393.053 142.872H426.362V109.511H393.053V142.872ZM428.583 142.872H461.893V109.511H428.583V142.872ZM464.112 142.872H497.422V109.511H464.112V142.872ZM499.643 142.872H532.952V109.511H499.643V142.872ZM535.173 142.872H568.482V109.511H535.173V142.872ZM570.703 142.872H604.013V109.511H570.703V142.872ZM606.233 142.872H639.543V109.511H606.233V142.872ZM641.764 142.872H675.073V109.511H641.764V142.872ZM2.2207 107.154H35.5303V73.793H2.2207V107.154ZM37.751 107.154H71.0605V73.793H37.751V107.154ZM73.2812 107.154H106.591V73.793H73.2812V107.154ZM108.812 107.154H142.121V73.793H108.812V107.154ZM144.342 107.154H177.651V73.793H144.342V107.154ZM179.871 107.154H213.181V73.793H179.871V107.154ZM215.401 107.154H248.711V73.793H215.401V107.154ZM250.932 107.154H284.241V73.793H250.932V107.154ZM286.462 107.154H319.771V73.793H286.462V107.154ZM321.992 107.154H355.302V73.793H321.992V107.154ZM357.522 107.154H390.832V73.793H357.522V107.154ZM393.053 107.154H426.362V73.793H393.053V107.154ZM428.583 107.154H461.893V73.793H428.583V107.154ZM464.112 107.154H497.422V73.793H464.112V107.154ZM499.643 107.154H532.952V73.793H499.643V107.154ZM535.173 107.154H568.482V73.793H535.173V107.154ZM570.703 107.154H604.013V73.793H570.703V107.154ZM606.233 107.154H639.543V73.793H606.233V107.154ZM641.764 107.154H675.073V73.793H641.764V107.154ZM2.2207 71.4355H35.5303V38.0742H2.2207V71.4355ZM37.751 71.4355H71.0605V38.0742H37.751V71.4355ZM73.2812 71.4355H106.591V38.0742H73.2812V71.4355ZM108.812 71.4355H142.121V38.0742H108.812V71.4355ZM144.342 71.4355H177.651V38.0742H144.342V71.4355ZM179.871 71.4355H213.181V38.0742H179.871V71.4355ZM215.401 71.4355H248.711V38.0742H215.401V71.4355ZM250.932 71.4355H284.241V38.0742H250.932V71.4355ZM286.462 71.4355H319.771V38.0742H286.462V71.4355ZM321.992 71.4355H355.302V38.0742H321.992V71.4355ZM357.522 71.4355H390.832V38.0742H357.522V71.4355ZM393.053 71.4355H426.362V38.0742H393.053V71.4355ZM428.583 71.4355H461.893V38.0742H428.583V71.4355ZM464.112 71.4355H497.422V38.0742H464.112V71.4355ZM499.643 71.4355H532.952V38.0742H499.643V71.4355ZM535.173 71.4355H568.482V38.0742H535.173V71.4355ZM570.703 71.4355H604.013V38.0742H570.703V71.4355ZM606.233 71.4355H639.543V38.0742H606.233V71.4355ZM641.764 71.4355H675.073V38.0742H641.764V71.4355ZM2.2207 35.7178H35.5303V2.23926H2.2207V35.7178ZM37.751 35.7178H71.0605V2.23926H37.751V35.7178ZM73.2812 35.7178H106.591V2.23926H73.2812V35.7178ZM108.812 35.7178H142.121V2.23926H108.812V35.7178ZM144.342 35.7178H177.651V2.23926H144.342V35.7178ZM179.871 35.7178H213.181V2.23926H179.871V35.7178ZM215.401 35.7178H248.711V2.23926H215.401V35.7178ZM250.932 35.7178H284.241V2.23926H250.932V35.7178ZM286.462 35.7178H319.771V2.23926H286.462V35.7178ZM321.992 35.7178H355.302V2.23926H321.992V35.7178ZM357.522 35.7178H390.832V2.23926H357.522V35.7178ZM393.053 35.7178H426.362V2.23926H393.053V35.7178ZM428.583 35.7178H461.893V2.23926H428.583V35.7178ZM464.112 35.7178H497.422V2.23926H464.112V35.7178ZM499.643 35.7178H532.952V2.23926H499.643V35.7178ZM535.173 35.7178H568.482V2.23926H535.173V35.7178ZM570.703 35.7178H604.013V2.23926H570.703V35.7178ZM606.233 35.7178H639.543V2.23926H606.233V35.7178ZM641.764 35.7178H675.073V2.23926H641.764V35.7178Z" fill="url(#paint0_radial_546_425)" fill-opacity="0.1"/>
<defs>
<radialGradient id="paint0_radial_546_425" cx="0" cy="0" r="1" gradientUnits="userSpaceOnUse" gradientTransform="translate(339.906 339.905) rotate(90.2115) scale(341.097 369.009)">
<stop stop-color="white"/>
<stop offset="1" stop-color="white" stop-opacity="0"/>
</radialGradient>
</defs>
</svg>
