<svg width="198" height="193" viewBox="0 0 198 193" fill="none" xmlns="http://www.w3.org/2000/svg">
<path d="M131.528 6L131.528 0H131.528V6ZM136.464 7.51172L139.994 2.65951L139.993 2.6593L136.464 7.51172ZM139.485 11.7588L145.148 9.7767L145.148 9.77668L139.485 11.7588ZM140.243 15.7441L134.256 16.1443L134.573 20.8804L139.254 21.6622L140.243 15.7441ZM141.798 16.0039L140.81 21.922L141.224 21.9911L141.644 22.0019L141.798 16.0039ZM150.668 21.1152L155.699 17.8455L155.699 17.8453L150.668 21.1152ZM152.469 34.5879L146.586 33.4113L146.586 33.4115L152.469 34.5879ZM152.459 34.6357L146.596 33.3648L146.596 33.3651L152.459 34.6357ZM148.914 51L143.05 49.7294L141.474 57H148.914V51ZM171.528 51L171.528 45H171.528V51ZM189.132 59.3867L194.342 56.41L194.342 56.4098L189.132 59.3867ZM189.387 79.9023L183.693 78.0105L182.525 81.5257L185.145 84.145L189.387 79.9023ZM189.388 79.9033L195.11 81.7101L196.207 78.2365L193.631 75.6607L189.388 79.9033ZM159.388 174.903L153.667 173.097L153.655 173.133L153.644 173.17L159.388 174.903ZM150.195 185.563L152.279 191.19L152.279 191.19L150.195 185.563ZM136.528 187V181V181V187ZM36.5278 187L36.5278 193H36.5278V187ZM23.7807 182.996L19.5378 187.238L19.5381 187.239L23.7807 182.996ZM21.5805 177.473L15.5938 177.074L15.5938 177.074L21.5805 177.473ZM23.7758 172.558L28.3177 176.478L29.3057 175.334L29.6333 173.858L23.7758 172.558ZM24.4887 169.346L30.3462 170.646L32.2818 161.925L23.4769 163.432L24.4887 169.346ZM23.5698 169.503L17.6547 170.508L18.6613 176.43L24.5817 175.417L23.5698 169.503ZM6.56979 69.5029L2.32715 65.2603L0.13511 67.4523L0.654659 70.5085L6.56979 69.5029ZM6.57077 69.502L10.8134 73.7446L13.0767 71.4813L12.4574 68.3411L6.57077 69.502ZM11.5639 48.8506L7.13582 44.8019L7.13576 44.802L11.5639 48.8506ZM29.9575 41.0342L30.2206 47.0284L33.1408 46.9002L34.8398 44.5218L29.9575 41.0342ZM54.0864 7.25586L49.3138 3.6196L49.2578 3.6931L49.2041 3.76828L54.0864 7.25586ZM54.1958 7.1123L49.5319 3.33765L49.4765 3.40605L49.4232 3.47605L54.1958 7.1123ZM54.2055 7.09961L49.5644 3.29697L49.5618 3.30011L54.2055 7.09961ZM54.227 7.0752L58.8269 10.9276L58.8292 10.9248L54.227 7.0752ZM54.6059 6.69629L58.4486 11.3043L58.4519 11.3016L54.6059 6.69629ZM54.6313 6.6748L50.84 2.02445L50.8364 2.02737L54.6313 6.6748ZM54.8315 6.52539L58.2226 11.4752L58.2282 11.4714L54.8315 6.52539ZM54.8764 6.49609L51.5743 1.48648L51.5686 1.4903L54.8764 6.49609ZM55.0893 6.36719L57.965 11.6332L57.9707 11.6301L55.0893 6.36719ZM55.1225 6.34961L52.313 1.04806L52.3075 1.05098L55.1225 6.34961ZM55.3208 6.25391L57.7343 11.7471L57.7379 11.7455L55.3208 6.25391ZM55.3784 6.22754L53.0812 0.684691L53.0785 0.685832L55.3784 6.22754ZM55.5874 6.15137L53.7075 0.453452L53.707 0.453647L55.5874 6.15137ZM55.6772 6.12305L57.3757 11.8776L57.3778 11.877L55.6772 6.12305ZM55.8872 6.06934L54.6117 0.206465L54.6066 0.207594L55.8872 6.06934ZM56.1499 6.02344L56.8979 11.9766L56.9046 11.9758L56.1499 6.02344ZM56.2114 6.0166L55.5861 0.049273L55.5797 0.049952L56.2114 6.0166ZM56.3071 6.00879L56.7422 11.993L56.7476 11.9926L56.3071 6.00879ZM56.3618 6.00391L56.0353 0.012795L56.0308 0.0130453L56.3618 6.00391ZM59.477 12V6H53.6715L53.4803 11.8023L59.477 12ZM52.021 37.7168L56.7571 41.4004L56.7571 41.4004L52.021 37.7168ZM31.5278 47L31.5278 41H31.4957L31.4636 41.0003L31.5278 47ZM30.8891 47.0068L30.8249 41.0072L30.7942 41.0075L30.7636 41.0081L30.8891 47.0068ZM15.9917 52.8994L11.5635 48.8508L11.5634 48.8509L15.9917 52.8994ZM12.352 67.7881L6.44203 68.8235L6.44835 68.8595L6.4551 68.8955L12.352 67.7881ZM12.4692 68.4121L6.57229 69.5195L6.57635 69.5412L6.58057 69.5628L12.4692 68.4121ZM12.4858 68.4971L18.4009 67.4915L18.3886 67.4188L18.3744 67.3464L12.4858 68.4971ZM27.4018 156.239L21.4867 157.245L33.259 157.541L27.4018 156.239ZM43.5991 83.3496L37.7894 81.8503L37.764 81.9488L37.742 82.0481L43.5991 83.3496ZM43.6538 83.1377L37.9068 81.4136L37.8733 81.5254L37.8441 81.6384L43.6538 83.1377ZM52.1167 70.3389L48.5454 65.5175L48.5453 65.5176L52.1167 70.3389ZM66.5278 66V60H66.5278L66.5278 66ZM106.528 66V72H106.528L106.528 66ZM122.402 58.8535L126.564 63.175L129.235 60.6022L128.128 57.0625L122.402 58.8535ZM122.1 57.8887L127.827 56.0977L126.776 52.7383L123.331 52.0163L122.1 57.8887ZM119.747 57.0205L117.069 62.39L117.069 62.39L119.747 57.0205ZM117.425 55.7451L120.357 50.5101L120.357 50.5101L117.425 55.7451ZM112.946 54.0186L113.614 48.0558L113.614 48.0558L112.946 54.0186ZM107.674 55.6387L111.115 60.5541L111.115 60.5541L107.674 55.6387ZM90.8667 55.8877L92.8488 50.2245H92.8488L90.8667 55.8877ZM77.6743 55.6387L81.1149 60.5541L81.115 60.5541L77.6743 55.6387ZM60.8667 55.8877L62.8488 50.2245H62.8488L60.8667 55.8877ZM47.6743 55.6387L51.1142 60.5547L51.115 60.5541L47.6743 55.6387ZM44.8891 55.1475L39.9737 58.5882L39.9741 58.5887L44.8891 55.1475ZM45.3813 52.3613L41.9408 47.4458L41.9405 47.4459L45.3813 52.3613ZM62.1889 52.1123L60.2068 57.7755H60.2068L62.1889 52.1123ZM75.3813 52.3613L71.9408 47.4458L71.9405 47.4459L75.3813 52.3613ZM92.1889 52.1123L90.2068 57.7755H90.2068L92.1889 52.1123ZM105.381 52.3613L101.941 47.4458L101.941 47.4459L105.381 52.3613ZM113.391 50.0439L114.059 44.0812L114.059 44.0812L113.391 50.0439ZM119.38 52.2549L122.312 47.0199L122.312 47.0198L119.38 52.2549ZM120.544 52.9111L117.612 58.146L130.769 65.5148L126.271 51.1215L120.544 52.9111ZM108.665 14.8945L102.938 16.6837L102.938 16.6841L108.665 14.8945ZM109.265 12.0293L104.741 8.08855L104.741 8.08866L109.265 12.0293ZM109.292 12L113.764 16.0007L122.712 6L109.292 6V12ZM37.9165 40.2168L33.0341 36.7294L23.3038 50.3518L39.472 46.0116L37.9165 40.2168ZM47.2846 34.0332L52.0207 37.7169L52.0208 37.7168L47.2846 34.0332ZM52.8237 19.3467L58.7576 20.2351L47.9413 15.8593L52.8237 19.3467ZM87.8833 30.417L85.68 24.8362L85.6796 24.8363L87.8833 30.417ZM91.312 30.0479L92.0699 24.0959L92.0695 24.0959L91.312 30.0479ZM97.3735 32.1875L94.8362 37.6246V37.6246L97.3735 32.1875ZM102.249 33.9854L101.492 39.9373L101.493 39.9374L102.249 33.9854ZM103.704 33.8623L105.907 39.443L105.908 39.4426L103.704 33.8623ZM104.9 32.8379L109.782 36.3257L109.782 36.3255L104.9 32.8379ZM107.69 32.373L111.178 27.4908L111.177 27.4904L107.69 32.373ZM108.156 35.1631L113.038 38.6505L113.038 38.6504L108.156 35.1631ZM105.172 37.583L107.376 43.1637L107.376 43.1637L105.172 37.583ZM101.744 37.9531L100.986 43.9051L100.986 43.9051L101.744 37.9531ZM95.6821 35.8125L98.2194 30.3754V30.3754L95.6821 35.8125ZM90.8061 34.0156L91.5638 28.0637L91.5632 28.0636L90.8061 34.0156ZM89.352 34.1377L87.1486 28.5569L87.148 28.5572L89.352 34.1377ZM88.1557 35.1631L83.2734 31.6756L83.2733 31.6756L88.1557 35.1631ZM85.1723 37.583L87.3759 43.1637L87.3761 43.1637L85.1723 37.583ZM81.7436 37.9531L80.9858 43.9051L80.9862 43.9051L81.7436 37.9531ZM75.6821 35.8125L78.2194 30.3754V30.3754L75.6821 35.8125ZM70.8061 34.0156L71.5638 28.0637L71.5632 28.0636L70.8061 34.0156ZM69.352 34.1377L67.1486 28.5569L67.148 28.5572L69.352 34.1377ZM68.1557 35.1631L73.038 38.6506L73.0381 38.6506L68.1557 35.1631ZM65.3657 35.6279L61.8783 40.5103L61.8795 40.5112L65.3657 35.6279ZM64.8999 32.8379L60.0175 29.3504L60.0168 29.3514L64.8999 32.8379ZM67.8833 30.417L65.68 24.8362L65.6796 24.8363L67.8833 30.417ZM71.312 30.0479L72.0699 24.0959L72.0695 24.0959L71.312 30.0479ZM77.3735 32.1875L74.8362 37.6246V37.6246L77.3735 32.1875ZM82.2495 33.9854L81.492 39.9373L81.4926 39.9374L82.2495 33.9854ZM83.7036 33.8623L85.9072 39.443L85.9083 39.4426L83.7036 33.8623ZM84.8999 32.8379L89.782 36.3257L89.7822 36.3253L84.8999 32.8379ZM134.077 14.7168L133.09 20.6352L141.629 22.0583L139.965 13.563L134.077 14.7168ZM133.821 13.7412L139.484 11.7591L139.484 11.7591L133.821 13.7412ZM132.935 12.3633L136.464 7.51104L136.463 7.51003L132.935 12.3633ZM131.528 12L131.528 6H131.528V12ZM117.775 12V6L116.789 17.9184L117.775 12ZM131.528 6L131.528 12C132.266 12 132.679 12.178 132.935 12.3641L136.464 7.51172L139.993 2.6593C137.327 0.720083 134.318 2.6226e-05 131.528 0L131.528 6ZM136.464 7.51172L132.935 12.3639C133.199 12.5562 133.54 12.9353 133.822 13.7409L139.485 11.7588L145.148 9.77668C144.243 7.19206 142.637 4.58185 139.994 2.65951L136.464 7.51172ZM139.485 11.7588L133.822 13.7409C134.019 14.3055 134.185 15.0873 134.256 16.1443L140.243 15.7441L146.229 15.344C146.104 13.4703 145.78 11.5835 145.148 9.7767L139.485 11.7588ZM140.243 15.7441L139.254 21.6622L140.81 21.922L141.798 16.0039L142.787 10.0858L141.231 9.82608L140.243 15.7441ZM141.798 16.0039L141.644 22.0019C143.07 22.0386 144.582 22.761 145.638 24.3852L150.668 21.1152L155.699 17.8453C152.529 12.9682 147.402 10.1461 141.953 10.0059L141.798 16.0039ZM150.668 21.1152L145.638 24.385C146.726 26.0591 147.477 28.9567 146.586 33.4113L152.469 34.5879L158.353 35.7645C159.681 29.1207 158.931 22.817 155.699 17.8455L150.668 21.1152ZM152.469 34.5879L146.586 33.4115C146.585 33.4152 146.584 33.4186 146.584 33.4209C146.583 33.4238 146.583 33.4246 146.583 33.4261C146.582 33.4286 146.583 33.4269 146.583 33.4237C146.584 33.4203 146.585 33.4133 146.587 33.4039C146.589 33.3945 146.592 33.3811 146.596 33.3648L152.459 34.6357L158.323 35.9067C158.333 35.86 158.341 35.8214 158.346 35.7999C158.348 35.7887 158.35 35.779 158.351 35.7735C158.353 35.7651 158.352 35.7667 158.353 35.7643L152.469 34.5879ZM152.459 34.6357L146.596 33.3651L143.05 49.7294L148.914 51L154.777 52.2706L158.323 35.9064L152.459 34.6357ZM148.914 51V57H171.528V51V45H148.914V51ZM171.528 51L171.528 57C178.4 57.0001 182.148 59.257 183.923 62.3636L189.132 59.3867L194.342 56.4098C189.678 48.2486 180.939 45.0001 171.528 45L171.528 51ZM189.132 59.3867L183.923 62.3635C185.803 65.6538 186.063 70.8787 183.693 78.0105L189.387 79.9023L195.081 81.7942C197.919 73.2516 198.677 63.9974 194.342 56.41L189.132 59.3867ZM189.387 79.9023L185.145 84.145L185.146 84.146L189.388 79.9033L193.631 75.6607L193.63 75.6597L189.387 79.9023ZM189.388 79.9033L183.667 78.0965L153.667 173.097L159.388 174.903L165.11 176.71L195.11 81.7101L189.388 79.9033ZM159.388 174.903L153.644 173.17C152.369 177.396 150.459 179.067 148.111 179.937L150.195 185.563L152.279 191.19C158.695 188.813 162.95 183.868 165.132 176.637L159.388 174.903ZM150.195 185.563L148.111 179.937C145.345 180.961 141.697 181 136.528 181V187V193C140.989 193 147.068 193.12 152.279 191.19L150.195 185.563ZM136.528 187V181H36.5278V187V193H136.528V187ZM36.5278 187L36.5279 181C31.8489 181 29.0712 179.801 28.0234 178.753L23.7807 182.996L19.5381 187.239C23.8901 191.591 30.5553 193 36.5278 193L36.5278 187ZM23.7807 182.996L28.0237 178.754C27.792 178.522 27.6761 178.326 27.6224 178.198C27.5761 178.087 27.5592 177.993 27.5673 177.871L21.5805 177.473L15.5938 177.074C15.3119 181.306 17.1287 184.829 19.5378 187.238L23.7807 182.996ZM21.5805 177.473L27.5672 177.872C27.5798 177.684 27.6799 177.217 28.3177 176.478L23.7758 172.558L19.234 168.637C17.3962 170.766 15.8246 173.612 15.5938 177.074L21.5805 177.473ZM23.7758 172.558L29.6333 173.858L30.3462 170.646L24.4887 169.346L18.6313 168.046L17.9184 171.258L23.7758 172.558ZM24.4887 169.346L23.4769 163.432L22.5579 163.589L23.5698 169.503L24.5817 175.417L25.5006 175.26L24.4887 169.346ZM23.5698 169.503L29.4849 168.497L12.4849 68.4974L6.56979 69.5029L0.654659 70.5085L17.6547 170.508L23.5698 169.503ZM6.56979 69.5029L10.8124 73.7456L10.8134 73.7446L6.57077 69.502L2.32813 65.2593L2.32715 65.2603L6.56979 69.5029ZM6.57077 69.502L12.4574 68.3411C11.1421 61.6713 12.7389 56.4574 15.9921 52.8992L11.5639 48.8506L7.13576 44.802C0.954371 51.5629 -1.25998 60.8044 0.684142 70.6628L6.57077 69.502ZM11.5639 48.8506L15.9921 52.8993C19.0905 49.5104 23.9801 47.3023 30.2206 47.0284L29.9575 41.0342L29.6944 35.04C20.9549 35.4235 12.806 38.6003 7.13582 44.8019L11.5639 48.8506ZM29.9575 41.0342L34.8398 44.5218L58.9687 10.7434L54.0864 7.25586L49.2041 3.76828L25.0752 37.5466L29.9575 41.0342ZM54.0864 7.25586L58.859 10.8921L58.9684 10.7486L54.1958 7.1123L49.4232 3.47605L49.3138 3.6196L54.0864 7.25586ZM54.1958 7.1123L58.8597 10.887C58.885 10.8557 58.9071 10.8277 58.9255 10.8041C58.9439 10.7806 58.9594 10.7604 58.9713 10.7448C58.983 10.7294 58.9925 10.7169 58.9979 10.7096C59.0007 10.7058 59.003 10.7028 59.0043 10.7011C59.0052 10.6999 59.0066 10.698 59.006 10.6988C59.0059 10.6989 59.0047 10.7006 59.0031 10.7027C59.0014 10.7049 58.9988 10.7084 58.9956 10.7127C58.9892 10.7211 58.9791 10.7346 58.9664 10.7511C58.9537 10.7677 58.9373 10.7889 58.918 10.8134C58.8986 10.838 58.8756 10.8669 58.8492 10.8991L54.2055 7.09961L49.5618 3.30011C49.5083 3.36555 49.4661 3.42 49.4397 3.45444C49.4262 3.472 49.4153 3.4865 49.4081 3.49597C49.4014 3.50495 49.3959 3.51228 49.3953 3.51306C49.3931 3.51604 49.397 3.51077 49.401 3.50554C49.4056 3.49932 49.4142 3.48787 49.4252 3.47351C49.4465 3.44548 49.4838 3.397 49.5319 3.33765L54.1958 7.1123ZM54.2055 7.09961L58.8467 10.9022C58.8175 10.9378 58.7912 10.9691 58.7686 10.9955C58.7461 11.0218 58.7265 11.0443 58.711 11.0619C58.6956 11.0793 58.683 11.0934 58.6749 11.1024C58.6671 11.111 58.6612 11.1175 58.6609 11.1178C58.6608 11.118 58.6607 11.1181 58.661 11.1178C58.6612 11.1176 58.6618 11.1169 58.6624 11.1162C58.6637 11.1148 58.6663 11.1119 58.6695 11.1084C58.6757 11.1015 58.6868 11.0892 58.7004 11.0739C58.7142 11.0585 58.7323 11.0381 58.7532 11.014C58.7742 10.9898 58.7991 10.9608 58.8269 10.9276L54.227 7.0752L49.6272 3.22275C49.6782 3.16185 49.7199 3.11454 49.743 3.08873C49.7548 3.07547 49.764 3.06521 49.7684 3.06034C49.7714 3.05705 49.7761 3.05192 49.7715 3.05691C49.7695 3.05921 49.7617 3.06775 49.7522 3.07836C49.7423 3.08938 49.7278 3.10549 49.7106 3.125C49.6768 3.16333 49.6252 3.22276 49.5644 3.29697L54.2055 7.09961ZM54.227 7.0752L58.8292 10.9248C58.7191 11.0565 58.5924 11.1844 58.4486 11.3043L54.6059 6.69629L50.7632 2.08829C50.3463 2.43595 49.9662 2.81741 49.6248 3.22558L54.227 7.0752ZM54.6059 6.69629L58.4519 11.3016C58.4766 11.2809 58.4965 11.264 58.5074 11.2547C58.5129 11.25 58.5175 11.2461 58.5196 11.2442C58.5206 11.2434 58.5218 11.2424 58.5219 11.2423C58.5223 11.2419 58.5221 11.2421 58.5216 11.2425C58.5208 11.2433 58.5176 11.2459 58.5134 11.2496C58.509 11.2533 58.5026 11.2587 58.4948 11.2653C58.4795 11.2783 58.4557 11.2982 58.4262 11.3222L54.6313 6.6748L50.8364 2.02737C50.8026 2.05496 50.7746 2.07839 50.755 2.09493C50.736 2.11097 50.7208 2.12401 50.7156 2.1285C50.7143 2.12958 50.7091 2.13403 50.7112 2.1322C50.7113 2.13218 50.7137 2.13007 50.7172 2.12714C50.7238 2.12146 50.7395 2.10812 50.76 2.09099L54.6059 6.69629ZM54.6313 6.6748L58.4226 11.3252C58.3473 11.3866 58.2795 11.4362 58.2226 11.4752L54.8315 6.52539L51.4404 1.5756C51.2463 1.70857 51.0447 1.85757 50.84 2.02445L54.6313 6.6748ZM54.8315 6.52539L58.2282 11.4714C58.1881 11.4989 58.1551 11.5207 58.1333 11.5351C58.1121 11.549 58.0963 11.5591 58.0938 11.5607C58.093 11.5612 58.0915 11.5622 58.0953 11.5597C58.0977 11.5582 58.1038 11.5543 58.1109 11.5497C58.125 11.5407 58.1517 11.5235 58.1843 11.5019L54.8764 6.49609L51.5686 1.4903C51.5937 1.47366 51.6129 1.46132 51.6194 1.45711C51.6228 1.45493 51.6251 1.45347 51.6238 1.45433C51.6235 1.45451 51.6232 1.45468 51.6227 1.45505C51.6222 1.45537 51.6214 1.45583 51.6206 1.45634C51.6191 1.45734 51.6167 1.45886 51.614 1.46062C51.604 1.467 51.5807 1.48198 51.552 1.50077C51.5227 1.52002 51.4823 1.54685 51.4348 1.57941L54.8315 6.52539ZM54.8764 6.49609L58.1785 11.5057C58.1426 11.5294 58.069 11.5763 57.965 11.6332L55.0893 6.36719L52.2136 1.10121C51.964 1.23755 51.7489 1.3714 51.5743 1.48648L54.8764 6.49609ZM55.0893 6.36719L57.9707 11.6301C57.9479 11.6425 57.9291 11.6526 57.9164 11.6593C57.904 11.666 57.8949 11.6708 57.8927 11.6719C57.8916 11.6725 57.8909 11.6728 57.8924 11.6721C57.8932 11.6716 57.8964 11.67 57.8998 11.6682C57.9066 11.6646 57.9205 11.6573 57.9376 11.6482L55.1225 6.34961L52.3075 1.05098C52.319 1.04487 52.3274 1.04046 52.3287 1.03979C52.3293 1.03948 52.3297 1.03924 52.3277 1.04028C52.3264 1.04097 52.323 1.04276 52.3191 1.0448C52.3058 1.05179 52.2619 1.0748 52.208 1.10432L55.0893 6.36719ZM55.1225 6.34961L57.9321 11.6512C57.8581 11.6904 57.7914 11.722 57.7343 11.7471L55.3208 6.25391L52.9072 0.760747C52.7156 0.844923 52.5167 0.940099 52.313 1.04806L55.1225 6.34961ZM55.3208 6.25391L57.7379 11.7455C57.8004 11.718 57.8505 11.6947 57.878 11.6818C57.8921 11.6753 57.9036 11.6698 57.9092 11.6672C57.9119 11.6659 57.9146 11.6646 57.9151 11.6644C57.9163 11.6638 57.9157 11.6641 57.9147 11.6646C57.9128 11.6655 57.9051 11.6691 57.8946 11.674C57.8839 11.679 57.8681 11.6863 57.8488 11.6951C57.8107 11.7124 57.7517 11.7388 57.6783 11.7692L55.3784 6.22754L53.0785 0.685832C52.9953 0.720357 52.9266 0.750942 52.879 0.772624C52.8329 0.793599 52.796 0.811056 52.7843 0.816574C52.7809 0.818176 52.778 0.819576 52.7767 0.820171C52.7749 0.821036 52.7752 0.820886 52.7755 0.820741C52.7763 0.820381 52.783 0.817191 52.7923 0.812831C52.8103 0.804407 52.8508 0.785574 52.9037 0.762309L55.3208 6.25391ZM55.3784 6.22754L57.6755 11.7704C57.6072 11.7987 57.553 11.8189 57.5191 11.8312C57.4859 11.8432 57.4656 11.8498 57.4678 11.8491L55.5874 6.15137L53.707 0.453647C53.5766 0.496663 53.3476 0.57432 53.0812 0.684691L55.3784 6.22754ZM55.5874 6.15137L57.4672 11.8493C57.467 11.8493 57.4579 11.8523 57.4432 11.857C57.4283 11.8617 57.4052 11.8689 57.3757 11.8776L55.6772 6.12305L53.9787 0.368479C53.8622 0.402873 53.7652 0.434432 53.7075 0.453452L55.5874 6.15137ZM55.6772 6.12305L57.3778 11.877C57.2997 11.9001 57.2292 11.9177 57.1678 11.9311L55.8872 6.06934L54.6066 0.207594C54.4037 0.251912 54.1931 0.305108 53.9766 0.369099L55.6772 6.12305ZM55.8872 6.06934L57.1626 11.9322C57.1177 11.942 57.0251 11.9606 56.8979 11.9766L56.1499 6.02344L55.4018 0.0702538C55.0969 0.108572 54.8292 0.159153 54.6117 0.206467L55.8872 6.06934ZM56.1499 6.02344L56.9046 11.9758C56.8654 11.9808 56.8365 11.9839 56.8279 11.9848C56.8233 11.9853 56.8209 11.9856 56.824 11.9853C56.826 11.9851 56.8268 11.985 56.8307 11.9846C56.8337 11.9842 56.8382 11.9838 56.8431 11.9833L56.2114 6.0166L55.5797 0.049952C55.5766 0.050272 55.5787 0.0500565 55.568 0.0511804C55.5608 0.0519323 55.5481 0.0532718 55.5333 0.0548782C55.5042 0.0580363 55.4548 0.0635257 55.3951 0.0710945L56.1499 6.02344ZM56.2114 6.0166L56.8367 11.9839C56.781 11.9898 56.74 11.993 56.7264 11.9941C56.7192 11.9947 56.7153 11.9949 56.7186 11.9947C56.7202 11.9946 56.7222 11.9944 56.7264 11.9941C56.73 11.9939 56.736 11.9934 56.7422 11.993L56.3071 6.00879L55.872 0.0245824C55.8702 0.024714 55.8682 0.0248642 55.8637 0.0251822C55.86 0.0254531 55.854 0.0258851 55.8476 0.0263481C55.8349 0.0272727 55.815 0.0287337 55.7919 0.0305433C55.7464 0.0340981 55.6735 0.0401149 55.5861 0.0492768L56.2114 6.0166ZM56.3071 6.00879L56.7476 11.9926C56.8152 11.9876 56.8697 11.9825 56.9002 11.9796C56.9158 11.978 56.9284 11.9768 56.9348 11.9761C56.938 11.9758 56.9409 11.9755 56.9417 11.9754C56.9432 11.9753 56.9426 11.9753 56.9418 11.9754C56.9401 11.9756 56.932 11.9764 56.9211 11.9775C56.9099 11.9785 56.8932 11.9801 56.8728 11.9819C56.8326 11.9854 56.77 11.9905 56.6928 11.9948L56.3618 6.00391L56.0308 0.0130453C55.9444 0.017817 55.8727 0.0235667 55.8234 0.0278921C55.7759 0.0320611 55.7377 0.035965 55.7271 0.0370421C55.7239 0.0373597 55.7211 0.037652 55.7203 0.0377359C55.7189 0.037879 55.7195 0.0378175 55.7204 0.0377254C55.7222 0.0375419 55.7303 0.0367146 55.7413 0.0356441C55.7627 0.0335727 55.8081 0.0292854 55.8666 0.0249801L56.3071 6.00879ZM56.3618 6.00391L56.6883 11.995C56.5952 12.0001 56.5329 12 56.5278 12V6V0C56.4113 0 56.2382 0.00173807 56.0353 0.0127969L56.3618 6.00391ZM56.5278 6V12H131.528V6V0H56.5278V6ZM59.477 12L53.4803 11.8023C53.1295 22.4427 50.7714 29.5504 47.2848 34.0332L52.021 37.7168L56.7571 41.4004C62.39 34.158 65.0782 24.1989 65.4738 12.1977L59.477 12ZM52.021 37.7168L47.2849 34.0332C43.5947 38.7777 38.3098 41 31.5278 41L31.5278 47L31.5278 53C41.1898 53 50.3318 49.6615 56.7571 41.4004L52.021 37.7168ZM31.5278 47L31.4636 41.0003L30.8249 41.0072L30.8891 47.0068L30.9533 53.0065L31.592 52.9997L31.5278 47ZM30.8891 47.0068L30.7636 41.0081C22.936 41.172 16.1014 43.8875 11.5635 48.8508L15.9917 52.8994L20.4198 56.948C22.2986 54.8931 25.7452 53.1158 31.0147 53.0055L30.8891 47.0068ZM15.9917 52.8994L11.5634 48.8509C6.9889 53.8544 5.04115 60.8273 6.44203 68.8235L12.352 67.7881L18.262 66.7527C17.4197 61.9448 18.6661 58.8663 20.4199 56.948L15.9917 52.8994ZM12.352 67.7881L6.4551 68.8955L6.57229 69.5195L12.4692 68.4121L18.3661 67.3047L18.2489 66.6807L12.352 67.7881ZM12.4692 68.4121L6.58057 69.5628L6.59718 69.6477L12.4858 68.4971L18.3744 67.3464L18.3578 67.2615L12.4692 68.4121ZM12.4858 68.4971L6.57067 69.5026L21.4867 157.245L27.4018 156.239L33.317 155.234L18.4009 67.4915L12.4858 68.4971ZM27.4018 156.239L33.259 157.541L49.4562 84.6512L43.5991 83.3496L37.742 82.0481L21.5447 154.938L27.4018 156.239ZM43.5991 83.3496L49.4088 84.8489L49.4634 84.637L43.6538 83.1377L37.8441 81.6384L37.7894 81.8503L43.5991 83.3496ZM43.6538 83.1377L49.4007 84.8618C50.7532 80.3536 52.9316 77.202 55.6881 75.1602L52.1167 70.3389L48.5453 65.5176C43.3167 69.3906 39.85 74.9364 37.9068 81.4136L43.6538 83.1377ZM52.1167 70.3389L55.688 75.1602C58.4459 73.1174 62.0339 72 66.5279 72L66.5278 66L66.5278 60C60.0069 60.0001 53.7688 61.6483 48.5454 65.5175L52.1167 70.3389ZM66.5278 66V72H106.528V66V60H66.5278V66ZM106.528 66L106.528 72C111.174 71.9999 115.035 71.0227 118.432 69.2867C121.733 67.5995 124.334 65.3228 126.564 63.175L122.402 58.8535L118.239 54.5321C116.269 56.4303 114.682 57.7268 112.971 58.6013C111.355 59.427 109.38 60 106.528 60L106.528 66ZM122.402 58.8535L128.128 57.0625L127.827 56.0977L122.1 57.8887L116.374 59.6796L116.675 60.6445L122.402 58.8535ZM122.1 57.8887L123.331 52.0163C123.197 51.9883 122.922 51.8994 122.424 51.651L119.747 57.0205L117.069 62.39C117.983 62.8456 119.301 63.4325 120.869 63.7611L122.1 57.8887ZM119.747 57.0205L122.424 51.651C121.826 51.3526 121.244 51.0066 120.357 50.5101L117.425 55.7451L114.494 60.9801C115.058 61.2961 116.127 61.9205 117.069 62.39L119.747 57.0205ZM117.425 55.7451L120.357 50.5101C118.774 49.6238 116.439 48.3723 113.614 48.0558L112.946 54.0186L112.278 59.9813C112.491 60.0051 112.981 60.1331 114.494 60.9802L117.425 55.7451ZM112.946 54.0186L113.614 48.0558C110.602 47.7186 107.453 48.4695 104.234 50.7233L107.674 55.6387L111.115 60.5541C111.712 60.136 112.052 60.0243 112.156 59.996C112.237 59.9738 112.254 59.9786 112.278 59.9813L112.946 54.0186ZM107.674 55.6387L104.234 50.7232C101.137 52.8909 98.1568 52.0823 92.8488 50.2245L90.8667 55.8877L88.8846 61.5508C93.2568 63.0811 102.305 66.7206 111.115 60.5541L107.674 55.6387ZM90.8667 55.8877L92.8488 50.2245C88.1835 48.5917 81.1451 45.8852 74.2335 50.7233L77.6743 55.6387L81.115 60.5541C81.8383 60.0478 82.3991 59.9184 83.3226 60.0003C84.5955 60.1133 86.1689 60.6004 88.8846 61.5508L90.8667 55.8877ZM77.6743 55.6387L74.2336 50.7232C71.1367 52.8909 68.1568 52.0823 62.8488 50.2245L60.8667 55.8877L58.8846 61.5508C63.2568 63.0811 72.3053 66.7206 81.1149 60.5541L77.6743 55.6387ZM60.8667 55.8877L62.8488 50.2245C58.1835 48.5917 51.1451 45.8852 44.2335 50.7233L47.6743 55.6387L51.115 60.5541C51.8383 60.0478 52.3991 59.9184 53.3226 60.0003C54.5955 60.1133 56.1689 60.6004 58.8846 61.5508L60.8667 55.8877ZM47.6743 55.6387L44.2344 50.7227C46.0422 49.4576 48.5361 49.8951 49.8042 51.7062L44.8891 55.1475L39.9741 58.5887C42.5089 62.2092 47.4967 63.086 51.1142 60.5547L47.6743 55.6387ZM44.8891 55.1475L49.8045 51.7067C51.073 53.5188 50.6296 56.0115 48.8221 57.2767L45.3813 52.3613L41.9405 47.4459C38.3233 49.978 37.4384 54.9663 39.9737 58.5882L44.8891 55.1475ZM45.3813 52.3613L48.8219 57.2769C51.9188 55.1092 54.8991 55.9178 60.2068 57.7755L62.1889 52.1123L64.171 46.4492C59.7986 44.9188 50.7502 41.2797 41.9408 47.4458L45.3813 52.3613ZM62.1889 52.1123L60.2068 57.7755C64.8721 59.4083 71.9104 62.1149 78.8221 57.2767L75.3813 52.3613L71.9405 47.4459C71.2173 47.9522 70.6565 48.0817 69.733 47.9997C68.4602 47.8867 66.8868 47.3997 64.171 46.4492L62.1889 52.1123ZM75.3813 52.3613L78.8219 57.2769C81.9188 55.1092 84.8991 55.9178 90.2068 57.7755L92.1889 52.1123L94.171 46.4492C89.7986 44.9188 80.7502 41.2797 71.9408 47.4458L75.3813 52.3613ZM92.1889 52.1123L90.2068 57.7755C94.8721 59.4083 101.91 62.1149 108.822 57.2767L105.381 52.3613L101.941 47.4459C101.217 47.9522 100.656 48.0817 99.733 47.9997C98.4602 47.8867 96.8868 47.3997 94.171 46.4492L92.1889 52.1123ZM105.381 52.3613L108.822 57.2769C110.604 56.0297 111.83 55.9066 112.723 56.0067L113.391 50.0439L114.059 44.0812C109.987 43.6252 105.877 44.6904 101.941 47.4458L105.381 52.3613ZM113.391 50.0439L112.723 56.0067C113.812 56.1286 114.923 56.6353 116.449 57.4899L119.38 52.2549L122.312 47.0198C120.684 46.108 117.744 44.494 114.059 44.0812L113.391 50.0439ZM119.38 52.2549L116.449 57.4899C116.649 57.6023 116.841 57.7106 117.034 57.82C117.224 57.9273 117.421 58.0385 117.612 58.146L120.544 52.9111L123.476 47.6763C123.311 47.5838 123.139 47.4863 122.942 47.3751C122.75 47.2661 122.538 47.1462 122.312 47.0199L119.38 52.2549ZM120.544 52.9111L126.271 51.1215L114.391 13.1049L108.665 14.8945L102.938 16.6841L114.818 54.7007L120.544 52.9111ZM108.665 14.8945L114.392 13.1053C114.701 14.0968 114.476 15.1818 113.79 15.9699L109.265 12.0293L104.741 8.08866C102.685 10.4484 102.006 13.7031 102.938 16.6837L108.665 14.8945ZM109.265 12.0293L113.79 15.97C113.734 16.034 113.687 16.0846 113.658 16.1163C113.643 16.1325 113.63 16.1455 113.622 16.154C113.614 16.1621 113.609 16.1682 113.608 16.1689C113.608 16.1691 113.608 16.1693 113.608 16.1691C113.608 16.169 113.608 16.1684 113.609 16.1679C113.61 16.1667 113.612 16.1643 113.615 16.1612C113.621 16.1554 113.631 16.1445 113.644 16.131C113.657 16.1174 113.674 16.0992 113.694 16.0778C113.714 16.0562 113.737 16.0303 113.764 16.0007L109.292 12L104.821 7.99932C104.868 7.9462 104.907 7.90517 104.927 7.88368C104.938 7.87263 104.946 7.8642 104.949 7.86072C104.95 7.85948 104.956 7.85408 104.95 7.86034C104.945 7.86474 104.919 7.8926 104.886 7.92742C104.852 7.96398 104.801 8.01953 104.741 8.08855L109.265 12.0293ZM109.292 12V6H59.477V12V18H109.292V12ZM37.9165 40.2168L39.472 46.0116C44.4929 44.6639 48.757 41.913 52.0207 37.7169L47.2846 34.0332L42.5485 30.3495C40.9372 32.4212 38.9353 33.7309 36.3609 34.4219L37.9165 40.2168ZM47.2846 34.0332L52.0208 37.7168C55.4207 33.3455 57.6692 27.5045 58.7576 20.2351L52.8237 19.3467L46.8898 18.4583C46.0097 24.3373 44.334 28.054 42.5485 30.3496L47.2846 34.0332ZM52.8237 19.3467L47.9413 15.8593L33.0341 36.7294L37.9165 40.2168L42.7989 43.7042L57.7061 22.8341L52.8237 19.3467ZM87.8833 30.417L90.0866 35.9978C90.087 35.9976 90.0908 35.9961 90.1007 35.9938C90.1111 35.9914 90.1322 35.9873 90.1667 35.9841C90.238 35.9776 90.3632 35.9755 90.5545 35.9998L91.312 30.0479L92.0695 24.0959C90.2584 23.8654 88.012 23.9155 85.68 24.8362L87.8833 30.417ZM91.312 30.0479L90.5541 35.9998C91.5293 36.124 92.803 36.6758 94.8362 37.6246L97.3735 32.1875L99.9108 26.7504C98.3688 26.0308 95.2803 24.5047 92.0699 24.0959L91.312 30.0479ZM97.3735 32.1875L94.8362 37.6246C96.5165 38.4087 99.0186 39.6225 101.492 39.9373L102.249 33.9854L103.007 28.0334C103.031 28.0364 102.821 28.0084 102.22 27.7743C101.625 27.5428 100.915 27.2188 99.9108 26.7504L97.3735 32.1875ZM102.249 33.9854L101.493 39.9374C102.839 40.1086 104.369 40.0505 105.907 39.443L103.704 33.8623L101.5 28.2816C102.299 27.9661 102.9 28.0198 103.006 28.0333L102.249 33.9854ZM103.704 33.8623L105.908 39.4426C107.479 38.822 108.771 37.7414 109.782 36.3257L104.9 32.8379L100.018 29.3501C100.069 29.2789 100.217 29.0887 100.491 28.8666C100.777 28.634 101.121 28.4315 101.499 28.282L103.704 33.8623ZM104.9 32.8379L109.782 36.3255C108.497 38.1239 105.999 38.5388 104.203 37.2557L107.69 32.373L111.177 27.4904C107.583 24.9234 102.586 25.7544 100.018 29.3503L104.9 32.8379ZM107.69 32.373L104.202 37.2553C102.408 35.9739 101.987 33.4771 103.273 31.6758L108.156 35.1631L113.038 38.6504C115.609 35.0515 114.769 30.0562 111.178 27.4908L107.69 32.373ZM108.156 35.1631L103.273 31.6756C103.145 31.8548 103.053 31.9395 103.012 31.9722C102.992 31.989 102.979 31.9966 102.975 31.999C102.971 32.0012 102.97 32.0019 102.969 32.0024L105.172 37.583L107.376 43.1637C109.762 42.2214 111.643 40.6037 113.038 38.6505L108.156 35.1631ZM105.172 37.583L102.969 32.0023C102.968 32.0027 102.963 32.0044 102.953 32.0068C102.942 32.0093 102.921 32.0134 102.887 32.0166C102.815 32.0232 102.691 32.0253 102.501 32.0011L101.744 37.9531L100.986 43.9051C102.801 44.1361 105.046 44.0835 107.376 43.1637L105.172 37.583ZM101.744 37.9531L102.501 32.0012C101.527 31.8771 100.255 31.3254 98.2194 30.3754L95.6821 35.8125L93.1448 41.2496C94.6843 41.9681 97.7745 43.4962 100.986 43.9051L101.744 37.9531ZM95.6821 35.8125L98.2194 30.3754C96.536 29.5898 94.0361 28.3784 91.5638 28.0637L90.8061 34.0156L90.0485 39.9676C90.0258 39.9647 90.2364 39.993 90.8375 40.2268C91.4317 40.4579 92.1421 40.7817 93.1448 41.2496L95.6821 35.8125ZM90.8061 34.0156L91.5632 28.0636C90.2258 27.8935 88.6934 27.947 87.1486 28.5569L89.352 34.1377L91.5554 39.7185C90.75 40.0365 90.1461 39.98 90.0491 39.9677L90.8061 34.0156ZM89.352 34.1377L87.148 28.5572C85.5715 29.1798 84.2813 30.2645 83.2734 31.6756L88.1557 35.1631L93.0381 38.6506C92.9885 38.72 92.841 38.9093 92.5682 39.1311C92.2824 39.3636 91.9379 39.5674 91.556 39.7182L89.352 34.1377ZM88.1557 35.1631L83.2733 31.6756C83.1454 31.8548 83.0526 31.9395 83.0124 31.9722C82.9916 31.989 82.9793 31.9966 82.9753 31.999C82.9714 32.0012 82.9699 32.0019 82.9686 32.0024L85.1723 37.583L87.3761 43.1637C89.7622 42.2214 91.643 40.6037 93.0381 38.6505L88.1557 35.1631ZM85.1723 37.583L82.9688 32.0023C82.9677 32.0027 82.9634 32.0044 82.9531 32.0068C82.9423 32.0093 82.921 32.0134 82.8865 32.0166C82.8153 32.0232 82.6908 32.0253 82.5011 32.0011L81.7436 37.9531L80.9862 43.9051C82.8009 44.1361 85.0463 44.0835 87.3759 43.1637L85.1723 37.583ZM81.7436 37.9531L82.5014 32.0012C81.527 31.8771 80.2551 31.3254 78.2194 30.3754L75.6821 35.8125L73.1448 41.2496C74.6843 41.9681 77.7745 43.4962 80.9858 43.9051L81.7436 37.9531ZM75.6821 35.8125L78.2194 30.3754C76.536 29.5898 74.0361 28.3784 71.5638 28.0637L70.8061 34.0156L70.0485 39.9676C70.0258 39.9647 70.2364 39.993 70.8375 40.2268C71.4317 40.4579 72.1421 40.7817 73.1448 41.2496L75.6821 35.8125ZM70.8061 34.0156L71.5632 28.0636C70.2258 27.8935 68.6934 27.947 67.1486 28.5569L69.352 34.1377L71.5554 39.7185C70.75 40.0365 70.1461 39.98 70.049 39.9677L70.8061 34.0156ZM69.352 34.1377L67.148 28.5572C65.5715 29.1798 64.2813 30.2645 63.2734 31.6756L68.1557 35.1631L73.0381 38.6506C72.9885 38.72 72.841 38.9093 72.5682 39.1311C72.2824 39.3636 71.9379 39.5674 71.556 39.7182L69.352 34.1377ZM68.1557 35.1631L63.2734 31.6755C64.5589 29.876 67.0565 29.4629 68.8519 30.7446L65.3657 35.6279L61.8795 40.5112C65.4724 43.0762 70.4688 42.2475 73.038 38.6506L68.1557 35.1631ZM65.3657 35.6279L68.8531 30.7455C70.6482 32.0277 71.0681 34.5244 69.7829 36.3244L64.8999 32.8379L60.0168 29.3514C57.4481 32.949 58.2858 37.9443 61.8783 40.5103L65.3657 35.6279ZM64.8999 32.8379L69.7822 36.3253C69.9108 36.1454 70.004 36.0601 70.0446 36.0272C70.0655 36.0102 70.0778 36.0027 70.0816 36.0004C70.0852 35.9983 70.0863 35.9979 70.0869 35.9977L67.8833 30.417L65.6796 24.8363C63.2912 25.7794 61.411 27.3995 60.0175 29.3504L64.8999 32.8379ZM67.8833 30.417L70.0866 35.9978C70.087 35.9976 70.0908 35.9961 70.1007 35.9938C70.1111 35.9914 70.1322 35.9873 70.1667 35.9841C70.238 35.9776 70.3632 35.9755 70.5545 35.9998L71.312 30.0479L72.0695 24.0959C70.2584 23.8654 68.012 23.9155 65.68 24.8362L67.8833 30.417ZM71.312 30.0479L70.5541 35.9998C71.5293 36.124 72.803 36.6758 74.8362 37.6246L77.3735 32.1875L79.9108 26.7504C78.3688 26.0308 75.2803 24.5047 72.0699 24.0959L71.312 30.0479ZM77.3735 32.1875L74.8362 37.6246C76.5165 38.4087 79.0186 39.6225 81.492 39.9373L82.2495 33.9854L83.007 28.0334C83.0309 28.0364 82.8211 28.0084 82.2196 27.7743C81.6249 27.5428 80.9145 27.2188 79.9108 26.7504L77.3735 32.1875ZM82.2495 33.9854L81.4926 39.9374C82.8388 40.1086 84.3688 40.0505 85.9072 39.443L83.7036 33.8623L81.4999 28.2816C82.299 27.9661 82.9005 28.0198 83.0064 28.0333L82.2495 33.9854ZM83.7036 33.8623L85.9083 39.4426C87.479 38.822 88.7706 37.7414 89.782 36.3257L84.8999 32.8379L80.0178 29.3501C80.0686 29.2789 80.2171 29.0887 80.4906 28.8666C80.7771 28.634 81.1206 28.4315 81.4989 28.282L83.7036 33.8623ZM84.8999 32.8379L89.7822 36.3253C89.9108 36.1454 90.004 36.0601 90.0446 36.0272C90.0655 36.0102 90.0778 36.0027 90.0816 36.0004C90.0852 35.9983 90.0863 35.9979 90.0869 35.9977L87.8833 30.417L85.6796 24.8363C83.2912 25.7794 81.411 27.3995 80.0175 29.3504L84.8999 32.8379ZM134.077 14.7168L139.965 13.563C139.854 12.9966 139.702 12.3825 139.484 11.7591L133.821 13.7412L128.158 15.7233C128.148 15.6947 128.148 15.6909 128.155 15.7179C128.162 15.7446 128.174 15.7941 128.189 15.8706L134.077 14.7168ZM133.821 13.7412L139.484 11.7591C138.889 10.0595 137.915 8.56605 136.464 7.51104L132.935 12.3633L129.406 17.2155C128.981 16.9067 128.666 16.5642 128.448 16.2522C128.242 15.9559 128.166 15.7483 128.158 15.7233L133.821 13.7412ZM132.935 12.3633L136.463 7.51003C135.008 6.45228 133.3 6.00004 131.528 6L131.528 12L131.528 18C131.419 18 131.121 17.987 130.707 17.8645C130.269 17.7349 129.822 17.518 129.407 17.2165L132.935 12.3633ZM131.528 12V6H117.775V12V18H131.528V12ZM117.775 12L116.789 17.9184L133.09 20.6352L134.077 14.7168L135.063 8.79842L118.761 6.08163L117.775 12Z" fill="white"/>
<g filter="url(#filter0_n_108_1754)">
<path d="M28.7003 170.521L11.7003 70.5205C8.70029 55.5205 18.7003 45.5205 33.7003 45.5205H143.7C158.7 45.5205 168.7 55.5205 165.7 70.5205L153.7 140.521" fill="#F3933C"/>
<path d="M28.7003 170.521L11.7003 70.5205C8.70029 55.5205 18.7003 45.5205 33.7003 45.5205H143.7C158.7 45.5205 168.7 55.5205 165.7 70.5205L153.7 140.521" stroke="#333C4E" stroke-width="6" stroke-linejoin="round"/>
</g>
<path d="M113.7 15.5205L143.7 20.5205C148.7 20.5205 153.7 25.5205 151.7 35.5205L138.7 95.5205L113.7 15.5205Z" fill="#DAE4F2" stroke="#333C4E" stroke-width="6" stroke-linejoin="round"/>
<g filter="url(#filter1_n_108_1754)">
<path d="M33.7003 45.5205L58.7003 10.5205H133.7C138.7 10.5205 140.7 15.5205 138.7 25.5205L118.7 120.521H38.7003L33.7003 45.5205Z" fill="#EBF0F6"/>
<path d="M33.7003 45.5205L58.7003 10.5205H133.7C138.7 10.5205 140.7 15.5205 138.7 25.5205L118.7 120.521H38.7003L33.7003 45.5205Z" stroke="#333C4E" stroke-width="6" stroke-linejoin="round"/>
</g>
<path d="M33.7003 45.5205C48.7003 45.5205 58.7003 35.5205 58.7003 10.5205" stroke="#333C4E" stroke-width="6" stroke-linecap="round"/>
<path d="M68.7003 35.5207C73.7003 28.5207 83.7003 42.5207 88.7003 35.5207C93.7003 28.5207 103.7 42.5207 108.7 35.5207" stroke="#333C4E" stroke-width="4" stroke-linecap="round"/>
<path d="M48.7003 55.5207C58.7003 48.5207 68.7003 62.5207 78.7003 55.5207C88.7003 48.5207 98.7003 62.5207 108.7 55.5207C118.7 48.5207 123.7 62.5207 128.7 55.5207" stroke="#333C4E" stroke-width="4" stroke-linecap="round"/>
<path d="M53.7003 75.5207C63.7003 68.5207 73.7003 82.5207 83.7003 75.5207C93.7003 68.5207 103.7 82.5207 113.7 75.5207" stroke="#333C4E" stroke-width="4" stroke-linecap="round"/>
<path d="M58.7003 95.5207C68.7003 88.5207 78.7003 102.521 88.7003 95.5207C98.7003 88.5207 103.7 102.521 108.7 95.5207" stroke="#333C4E" stroke-width="4" stroke-linecap="round"/>
<g filter="url(#filter2_n_108_1754)">
<path d="M28.7003 175.521L48.7003 85.5205C51.7003 75.5205 58.7003 70.5205 68.7003 70.5205H108.7C118.7 70.5205 123.7 65.5205 128.7 60.5205C133.7 55.5205 143.7 55.5205 148.7 55.5205H173.7C188.7 55.5205 193.7 65.5205 188.7 80.5205L158.7 175.521C155.7 185.521 148.7 185.521 138.7 185.521H38.7003C28.7003 185.521 23.7003 180.521 28.7003 175.521Z" fill="#FAC747"/>
<path d="M28.7003 175.521L48.7003 85.5205C51.7003 75.5205 58.7003 70.5205 68.7003 70.5205H108.7C118.7 70.5205 123.7 65.5205 128.7 60.5205C133.7 55.5205 143.7 55.5205 148.7 55.5205H173.7C188.7 55.5205 193.7 65.5205 188.7 80.5205L158.7 175.521C155.7 185.521 148.7 185.521 138.7 185.521H38.7003C28.7003 185.521 23.7003 180.521 28.7003 175.521Z" stroke="#333C4E" stroke-width="6" stroke-linejoin="round"/>
</g>
<path d="M53.7003 135.521L98.7003 138.521L93.7003 165.521L48.7003 160.521L53.7003 135.521Z" fill="#DAE4F2" stroke="#333C4E" stroke-width="5" stroke-linejoin="round"/>
<path d="M63.7003 145.521L88.7003 147.521" stroke="#333C4E" stroke-width="4" stroke-linecap="round"/>
<path d="M61.7003 155.521L83.7003 157.521" stroke="#333C4E" stroke-width="4" stroke-linecap="round"/>
<defs>
<filter id="filter0_n_108_1754" x="8.16904" y="42.5205" width="161.062" height="128.503" filterUnits="userSpaceOnUse" color-interpolation-filters="sRGB">
<feFlood flood-opacity="0" result="BackgroundImageFix"/>
<feBlend mode="normal" in="SourceGraphic" in2="BackgroundImageFix" result="shape"/>
<feTurbulence type="fractalNoise" baseFrequency="2 2" stitchTiles="stitch" numOctaves="3" result="noise" seed="2121" />
<feColorMatrix in="noise" type="luminanceToAlpha" result="alphaNoise" />
<feComponentTransfer in="alphaNoise" result="coloredNoise1">
<feFuncA type="discrete" tableValues="1 1 1 1 1 1 1 1 1 1 1 1 1 1 1 1 1 1 1 1 1 1 1 1 1 1 1 1 1 1 1 1 1 1 1 1 1 1 1 1 1 1 1 1 1 1 1 1 1 1 1 0 0 0 0 0 0 0 0 0 0 0 0 0 0 0 0 0 0 0 0 0 0 0 0 0 0 0 0 0 0 0 0 0 0 0 0 0 0 0 0 0 0 0 0 0 0 0 0 0 "/>
</feComponentTransfer>
<feComposite operator="in" in2="shape" in="coloredNoise1" result="noise1Clipped" />
<feFlood flood-color="rgba(0, 0, 0, 0.14)" result="color1Flood" />
<feComposite operator="in" in2="noise1Clipped" in="color1Flood" result="color1" />
<feMerge result="effect1_noise_108_1754">
<feMergeNode in="shape" />
<feMergeNode in="color1" />
</feMerge>
</filter>
<filter id="filter1_n_108_1754" x="30.7003" y="7.52051" width="111.766" height="116" filterUnits="userSpaceOnUse" color-interpolation-filters="sRGB">
<feFlood flood-opacity="0" result="BackgroundImageFix"/>
<feBlend mode="normal" in="SourceGraphic" in2="BackgroundImageFix" result="shape"/>
<feTurbulence type="fractalNoise" baseFrequency="2 2" stitchTiles="stitch" numOctaves="3" result="noise" seed="2121" />
<feColorMatrix in="noise" type="luminanceToAlpha" result="alphaNoise" />
<feComponentTransfer in="alphaNoise" result="coloredNoise1">
<feFuncA type="discrete" tableValues="1 1 1 1 1 1 1 1 1 1 1 1 1 1 1 1 1 1 1 1 1 1 1 1 1 1 1 1 1 1 1 1 1 1 1 1 1 1 1 1 1 1 1 1 1 1 1 1 1 1 1 0 0 0 0 0 0 0 0 0 0 0 0 0 0 0 0 0 0 0 0 0 0 0 0 0 0 0 0 0 0 0 0 0 0 0 0 0 0 0 0 0 0 0 0 0 0 0 0 0 "/>
</feComponentTransfer>
<feComposite operator="in" in2="shape" in="coloredNoise1" result="noise1Clipped" />
<feFlood flood-color="rgba(0, 0, 0, 0.14)" result="color1Flood" />
<feComposite operator="in" in2="noise1Clipped" in="color1Flood" result="color1" />
<feMerge result="effect1_noise_108_1754">
<feMergeNode in="shape" />
<feMergeNode in="color1" />
</feMerge>
</filter>
<filter id="filter2_n_108_1754" x="23.7386" y="52.5205" width="169.837" height="136" filterUnits="userSpaceOnUse" color-interpolation-filters="sRGB">
<feFlood flood-opacity="0" result="BackgroundImageFix"/>
<feBlend mode="normal" in="SourceGraphic" in2="BackgroundImageFix" result="shape"/>
<feTurbulence type="fractalNoise" baseFrequency="2 2" stitchTiles="stitch" numOctaves="3" result="noise" seed="2121" />
<feColorMatrix in="noise" type="luminanceToAlpha" result="alphaNoise" />
<feComponentTransfer in="alphaNoise" result="coloredNoise1">
<feFuncA type="discrete" tableValues="1 1 1 1 1 1 1 1 1 1 1 1 1 1 1 1 1 1 1 1 1 1 1 1 1 1 1 1 1 1 1 1 1 1 1 1 1 1 1 1 1 1 1 1 1 1 1 1 1 1 1 0 0 0 0 0 0 0 0 0 0 0 0 0 0 0 0 0 0 0 0 0 0 0 0 0 0 0 0 0 0 0 0 0 0 0 0 0 0 0 0 0 0 0 0 0 0 0 0 0 "/>
</feComponentTransfer>
<feComposite operator="in" in2="shape" in="coloredNoise1" result="noise1Clipped" />
<feFlood flood-color="rgba(0, 0, 0, 0.14)" result="color1Flood" />
<feComposite operator="in" in2="noise1Clipped" in="color1Flood" result="color1" />
<feMerge result="effect1_noise_108_1754">
<feMergeNode in="shape" />
<feMergeNode in="color1" />
</feMerge>
</filter>
</defs>
</svg>
